<svg xmlns="http://www.w3.org/2000/svg" xml:space="preserve" viewBox="0 0 750 500"><path d="M218.562 452.318S51.027 467.014 52.987 290.662c1.959-176.352 204.859-101.587 277.265-179.291C450.759-17.954 606.429 10.338 666.256 170.919c61.768 165.791-151.814 319.609-447.694 281.399" style="fill:#faeee8"/><path d="M158.438 365.122s-14.043-83.931-44.415-68.582 32.005 61.397 44.415 68.582" style="fill:#f66"/><path d="M175.746 368.714s-38.21-44.741-14.043-55.192c24.167-10.45 14.043 55.192 14.043 55.192M185.866 397.793s-34.502-37.365-47.182-19.795 47.182 19.795 47.182 19.795" style="fill:#f66"/><path d="M119.575 309.277s51.926 98.953 126.386 111.69" style="fill:none;stroke:#ff5640;stroke-width:1.9595;stroke-miterlimit:10"/><path d="M165.949 328.872s8.818 16.329 11.43 54.865" style="fill:none;stroke:#ff5640;stroke-width:1.9595;stroke-miterlimit:10"/><path d="M151.758 383.773s13.308 9.562 47.256 17.668" style="fill:none;stroke:#ff5640;stroke-width:1.7715;stroke-miterlimit:10"/><path d="M129.361 388.882s26.779 57.612 98.525 30.523" style="fill:none;stroke:#ff5640;stroke-width:1.9595;stroke-miterlimit:10"/><path d="M137.034 401.849s7.207-10.27-12.456-21.14c0 0-6.43 17.42 12.456 21.14M148.793 411.907s-8.946-6.963-1.393-16.928c0 0 8.682 7.961 1.393 16.928M147.555 412.607s-8.384 8.874-18.29-.248c-.001 0 9.427-8.488 18.29.248M165.88 421.514s-9.77-5.75-3.566-16.607c0 .001 9.637 6.775 3.566 16.607M164.743 422.368s-7.169 9.882-18.169 2.115c0 0 8.252-9.634 18.169-2.115M185.27 425.513s-11.152-2.035-9.065-14.364c-.001 0 11.379 3.042 9.065 14.364M184.495 426.706s-3.329 11.746-16.33 8.241c0-.001 4.432-11.887 16.33-8.241M206.946 425.06s-11.295.972-12.526-11.471c0 0 11.779-.06 12.526 11.471M206.513 426.415s-.119 12.208-13.585 12.248c-.001.001 1.146-12.633 13.585-12.248" style="fill:#ff5640"/><path d="M182.278 255.392s-20.492 60.136 50.07 90.177" style="fill:none;stroke:#ff5640;stroke-width:1.9595;stroke-miterlimit:10"/><path d="M178.855 270.065s12.308-2.436 5.619-23.885c0 0-16.691 8.139-5.619 23.885M180.394 285.462s-1.648-11.216 10.699-13.192c0 0 .767 11.754-10.699 13.192M179.016 285.111s-12.193.613-13.042-12.826c0 0 12.68.387 13.042 12.826M186.095 304.218s-3.082-10.91 8.907-14.463c0 0 2.277 11.557-8.907 14.463M184.683 304.047s-12.012 2.182-14.588-11.035c0 0 12.623-1.253 14.588 11.035M197.337 320.513s-6.649-9.182 3.383-16.645c.001 0 6.118 10.067-3.383 16.645M195.953 320.839s-10.527 6.184-17.495-5.339c0 0 11.42-5.522 17.495 5.339M213.309 335.175s-8.832-7.108-1.117-16.948c0-.001 8.551 8.101 1.117 16.948M212.059 335.854s-8.528 8.737-18.284-.546c.001.001 9.565-8.333 18.284.546" style="fill:#ff5640"/><path d="M191.566 352.828s12.228 62.344 88.37 53.194" style="fill:none;stroke:#ff5640;stroke-width:1.9595;stroke-miterlimit:10"/><path d="M195.917 367.253s9.453-8.249-7.041-23.505c0 0-10.408 15.378 7.041 23.505M204.93 379.831s-7.022-8.9 2.695-16.77c-.001 0 6.526 9.806-2.695 16.77M203.56 380.214s-10.263 6.612-17.7-4.614c-.001 0 11.183-5.988 17.7 4.614M219.224 393.245s-8.112-7.919.508-16.978c0 0 7.738 8.882-.508 16.978M217.915 393.802s-9.324 7.882-18.148-2.29c.001 0 10.318-7.382 18.148 2.29M237.095 401.763s-10.342-4.643-5.368-16.115c0 0 10.323 5.676 5.368 16.115M236.058 402.737s-6.041 10.609-17.827 4.097c0 0 7.145-10.482 17.827-4.097M258.251 406.507s-11.2-1.757-9.42-14.133c0-.001 11.452 2.757 9.42 14.133M257.507 407.719s-3.035 11.825-16.12 8.645c0 0 4.134-11.993 16.12-8.645" style="fill:#ff5640"/><path d="M379.044 317.66s17.2 61.159-54.887 87.329" style="fill:none;stroke:#ff5640;stroke-width:1.9595;stroke-miterlimit:10"/><path d="M381.666 332.497s-12.158-3.1-4.315-24.155c0 .001 16.224 9.033 4.315 24.155M379.293 347.788s2.254-11.11-9.968-13.753c.001 0-1.402 11.696 9.968 13.753M380.689 347.513s12.142 1.274 13.718-12.1c0 0-12.682-.302-13.718 12.1M372.584 366.207s3.669-10.726-8.109-14.925c0 .001-2.901 11.417 8.109 14.925M374.003 366.114s11.876 2.83 15.165-10.228c0 0-12.537-1.936-15.165 10.228M360.474 381.869s7.138-8.808-2.476-16.804c.001 0-6.653 9.72 2.476 16.804M361.839 382.27s10.176 6.746 17.759-4.382c0 0-11.104-6.134-17.759 4.382M343.731 395.643s9.204-6.618 2.035-16.863c0 0-8.978 7.626-2.035 16.863M344.942 396.389s8.041 9.186 18.286.447c0 0-9.098-8.84-18.286-.447" style="fill:#ff5640"/><path d="M272.59 446.277c.798 5.352-2.893 10.337-8.245 11.135l-28.102 4.191c-5.352.798-10.337-2.893-11.135-8.245l-14.595-97.871c-.798-5.352 2.893-10.337 8.245-11.135l28.102-4.191c5.352-.798 10.337 2.893 11.135 8.245z" style="fill:#001433"/><path d="M292.988 160.559s37.059-23.144 58.637 11.069 29.553 121.759-3.284 127.797-55.822 1.509-51.6-48.301c4.221-49.811-3.753-90.565-3.753-90.565" style="fill:#000a19"/><path d="M313.072 255.882s-8.328 23.514 6.368 27.433 30.372-4.899 31.841 26.943c1.47 31.841-105.811 2.939-104.342-10.777s35.27-3.429 36.74-33.801 1.96-31.841 1.96-31.841z" style="fill:#ffb199"/><path d="M310.87 272.087c-.822-7.65 2.202-16.205 2.202-16.205l-27.433-22.044s0 4.521-.35 15.183c4.577 10.897 14.206 18.903 25.581 23.066" style="fill:#e2887d"/><path d="M303.275 172.589s46.537-13.566 46.537 44.574-56.335 52.326-69.561 8.237c-13.797-45.994 23.024-52.811 23.024-52.811" style="fill:#ffb199"/><path d="M298.866 203.221s.09-.45.399-1.186c.307-.735.827-1.768 1.694-2.861a12.3 12.3 0 0 1 3.638-3.178 11.2 11.2 0 0 1 2.587-1.102c.923-.298 1.909-.403 2.885-.476.978-.007 1.958.038 2.886.237.467.085.925.185 1.361.333.443.128.874.263 1.277.445.828.313 1.571.723 2.261 1.115.677.417 1.297.833 1.826 1.27.554.4 1.008.833 1.406 1.216.411.365.732.725.991 1.027.522.595.792.957.792.957s-.432-.162-1.138-.486a76 76 0 0 0-2.901-1.257c-.589-.257-1.246-.474-1.919-.725-.682-.223-1.393-.467-2.135-.641-.736-.2-1.503-.341-2.273-.439-.772-.106-1.55-.13-2.324-.116-.769.049-1.539.113-2.278.295-.741.168-1.464.386-2.147.674-1.376.549-2.592 1.322-3.619 2.05a28 28 0 0 0-2.392 1.992c-.561.526-.877.856-.877.856M330.708 201.506s-.003-.352.102-.949c.101-.598.317-1.438.732-2.405.429-.956 1.06-2.05 2.054-3.038a7.8 7.8 0 0 1 1.751-1.34c.663-.398 1.445-.655 2.238-.811.803-.152 1.623-.116 2.396-.001a8 8 0 0 1 2.108.71c.635.308 1.178.692 1.667 1.068.47.399.896.784 1.237 1.184.362.38.635.774.876 1.118.254.331.433.655.577.921.292.528.427.847.427.847s-.325-.146-.839-.432a49 49 0 0 0-2.089-1.111c-.416-.229-.879-.427-1.35-.644a14 14 0 0 0-1.481-.535c-.506-.157-1.021-.236-1.527-.303-.505-.011-1.007-.041-1.493.071-.975.162-1.934.618-2.809 1.232-.88.603-1.663 1.343-2.335 2.007a45 45 0 0 0-1.617 1.713zM333.647 207.875l.443.803 1.153 2.067c.242.418.511.865.799 1.321.287.458.616.922.959 1.366.333.462.746.85 1.143 1.195.414.299.83.569 1.222.566l.147.03.009.002c-.06.005.141-.009-.133.011l.008-.001.03-.004.061-.008.122-.016c.148-.025.355-.035.454-.073.101-.101.226-.084.432-.264.375-.253.736-.676 1.042-1.122.607-.919 1.063-1.939 1.444-2.82.369-.888.665-1.655.87-2.195l.328-.856s.197 1.346-.115 3.354c-.156 1.003-.425 2.177-1.04 3.391-.335.591-.704 1.241-1.372 1.755-.182.126-.286.265-.541.375a6 6 0 0 1-.718.296c-.209.059-.336.058-.508.09l-.121.018-.061.009-.03.005-.008.001c-.279.02-.084.005-.149.009l-.021-.002-.34-.038c-.938-.075-1.672-.582-2.247-1.073a7.5 7.5 0 0 1-1.324-1.658c-.365-.557-.615-1.134-.839-1.677a12 12 0 0 1-.536-1.553c-.283-.971-.419-1.8-.489-2.383-.069-.584-.074-.921-.074-.921M306.704 207.875l.443.803 1.153 2.067c.242.418.511.865.799 1.321.287.458.616.922.959 1.366.333.462.746.85 1.143 1.195.414.299.83.569 1.222.566l.147.03.009.002c-.06.005.141-.009-.134.011l.008-.001.031-.004.061-.008.122-.016c.148-.025.355-.035.454-.073.101-.101.226-.084.432-.264.375-.253.736-.676 1.042-1.122.607-.919 1.063-1.939 1.444-2.82.369-.888.665-1.655.87-2.195l.328-.856s.197 1.346-.115 3.354c-.156 1.003-.425 2.177-1.04 3.391-.335.591-.704 1.241-1.372 1.755-.182.126-.286.265-.541.375a6 6 0 0 1-.718.296c-.21.059-.336.058-.508.09l-.121.018-.061.009-.03.005-.008.001c-.279.02-.083.005-.149.009l-.021-.002-.339-.038c-.938-.075-1.672-.582-2.247-1.073a7.5 7.5 0 0 1-1.324-1.658c-.364-.557-.615-1.134-.839-1.677a12 12 0 0 1-.536-1.553 15 15 0 0 1-.49-2.383 10 10 0 0 1-.074-.921" style="fill:#000a19"/><path d="M328.503 207.385c.156.824.326 1.62.511 2.405.079.393.197.779.294 1.164.08.387.209.764.312 1.141.101.379.248.744.357 1.114.111.371.256.729.388 1.087.13.36.267.714.427 1.057.163.341.282.701.468 1.025l.51.992.583.936c.171.328.418.597.628.894.22.289.418.597.677.85.243.268.492.531.725.809l.813.723c.135.122.263.254.403.371l.449.316.891.66 1.73 1.281-1.647.892a57 57 0 0 1-3.673 1.825c-.616.299-1.265.545-1.897.818-.648.249-1.295.499-1.97.705.468-.529.964-1.014 1.459-1.5.511-.462 1.004-.951 1.531-1.387a57 57 0 0 1 3.185-2.584l.082 2.172-1.168-.635-.58-.332c-.185-.124-.359-.264-.539-.397l-1.055-.834c-.319-.314-.623-.645-.932-.97-.324-.314-.583-.679-.841-1.044-.251-.368-.544-.713-.743-1.111l-.63-1.171c-.176-.404-.331-.816-.495-1.223-.181-.401-.265-.832-.392-1.248a9 9 0 0 1-.289-1.265c-.079-.424-.16-.845-.186-1.274-.039-.426-.09-.849-.08-1.277-.023-.85.008-1.696.127-2.532.102-.833.283-1.662.567-2.453" style="fill:#ff8255"/><path d="m313.072 234.817 24.983.49c.001 0-8.082 16.901-24.983-.49" style="fill:#ff553c"/><path d="M313.072 234.817a45 45 0 0 0 1.728 1.682c4.876-.65 9.723-.159 13.212 3.703a26 26 0 0 1 1.752 2.159c5.571-1.389 8.291-7.055 8.291-7.055z" style="fill:#b2382b"/><path d="M357.16 329.362s-.98 57.804 1.47 57.804c2.449 0 61.233 15.676 63.683 25.963 2.449 10.287 4.409 30.862-4.409 3.429 0 0 7.348 38.21-6.368-.49 0 0-5.389 36.74-5.389-.49 0 0-4.899 33.311-5.389.49 0 0-62.703-.98-80.338-15.186s12.247-79.358 12.247-79.358z" style="fill:#e2887d"/><path d="M338.056 334.75s13.716 1.47 22.534-1.96c0 0-.421-43.604-21.554-47.027-20.038-3.245-.98 48.987-.98 48.987" style="fill:#ffa94d"/><path d="M335.049 325.501c1.627 5.465 3.007 9.25 3.007 9.25s13.716 1.47 22.534-1.96c0 0-.133-13.562-3.914-26.154-5.783 7.451-13.312 13.699-21.627 18.864M260.978 406.271s-26.726 16.655-27.754 42.129H358.63s-1.028-26.453-26.726-44.088-70.926 1.959-70.926 1.959" style="fill:#dd8d45"/><path d="M259.677 406.271s-31.351-48.987-26.453-87.196c4.899-38.21 23.514-33.801 31.352-33.801 0 0 11.757 25.473 36.74 22.044 26.973-3.702 29.392-23.024 29.392-23.024s15.676-2.449 20.085 12.737 11.757 57.804-14.206 65.152l-5.878 29.882c-.001 0-24.005 23.513-71.032 14.206" style="fill:#ffa94d"/><path d="M281.553 343.974c-11.102-5.714-21.13-13.244-30.706-21.208-5.378-4.472-10.896-8.996-15.71-14.135-.763 3.07-1.411 6.53-1.913 10.443-4.899 38.21 26.453 87.196 26.453 87.196 47.027 9.307 71.031-14.206 71.031-14.206l5.878-29.882c5.383-1.523 9.316-4.578 12.158-8.575-22.359 1.505-47.007.755-67.191-9.633" style="fill:#dd8d45"/><path d="M281.231 152.03s28.412-5.878 30.862 18.615-24.004 24.983-23.024 50.456 9.797 55.845-9.797 66.622-38.21-14.696-46.047 33.801c0 0-17.145-27.433-3.429-45.558s20.574-39.189 20.085-76.909c-.491-37.72 21.553-43.598 31.35-47.027" style="fill:#001433"/><path d="M280.251 225.399s13.716 16.766 31.841 17.746" style="fill:none;stroke:#001433;stroke-width:.9797;stroke-miterlimit:10"/><path d="M318.998 244.158a3.223 3.223 0 0 1-3.723 2.629l-7.543-1.3a3.223 3.223 0 0 1 1.094-6.352l7.543 1.3a3.223 3.223 0 0 1 2.629 3.723" style="fill:#22689e"/><ellipse cx="275.598" cy="212.528" rx="20.33" ry="22.289" style="fill:#dd8d45"/><ellipse cx="269.229" cy="212.528" rx="20.33" ry="22.289" style="fill:#ffa94d"/><ellipse cx="269.187" cy="212.773" rx="10.977" ry="12.035" style="fill:#dd8d45"/><path d="M266.045 212.283s-.98-41.149 21.064-55.845c24.759-16.506 45.068-.98 45.068-.98s-26.943-5.389-42.129 10.777-17.145 42.618-17.145 42.618z" style="fill:#dd8d45"/><path d="M278.292 334.26s-2.449 54.375-3.429 67.112c0 0 66.622-12.736 75.44-7.838s32.331 49.477 8.818 19.105c0 0 20.574 37.23-5.389 1.96 0 0 12.737 31.841-5.878 0 0 0 12.247 27.432-6.858-2.449 0 0-79.848 33.311-91.605 25.963s-20.085-63.683-14.206-110.22c5.877-46.538 43.107 6.367 43.107 6.367" style="fill:#ffb199"/><path d="M261.805 356.875c5.312.094 10.46-.487 15.507-1.507.561-11.807.98-21.107.98-21.107s-37.23-52.906-43.108-6.368c-.954 7.549-1.531 15.355-1.783 23.169 9.126 3.252 18.472 5.638 28.404 5.813" style="fill:#e2887d"/><path d="M230.285 346.017s-2.939-58.784 26.453-55.845 23.024 58.294 23.024 58.294-26.943 6.859-49.477-2.449" style="fill:#ffa94d"/><path d="M641.773 459.177c0 3.246-2.193 5.878-4.899 5.878H108.798c-2.705 0-4.899-2.632-4.899-5.878V447.42c0-3.247 2.193-5.878 4.899-5.878h528.077c2.706 0 4.899 2.632 4.899 5.878z" style="fill:#22689e"/><path d="M589.892 391.575a4.9 4.9 0 0 1-4.899 4.899H404.722a4.9 4.9 0 0 1-4.899-4.899V251.473a4.9 4.9 0 0 1 4.899-4.899h180.271a4.9 4.9 0 0 1 4.899 4.899z" style="fill:#003154"/><path d="M603.605 391.575a4.9 4.9 0 0 1-4.899 4.899h-180.27a4.9 4.9 0 0 1-4.899-4.899V251.473a4.9 4.9 0 0 1 4.899-4.899h180.271a4.9 4.9 0 0 1 4.899 4.899z" style="fill:#001433"/><path d="M523.023 435.663a4.9 4.9 0 0 1-4.899 4.899h-25.473a4.9 4.9 0 0 1-4.899-4.899V330.831a4.9 4.9 0 0 1 4.899-4.899h25.473a4.9 4.9 0 0 1 4.899 4.899z" style="fill:#003154"/><path d="M564.662 436.643a4.9 4.9 0 0 1-4.899 4.899H451.012a4.9 4.9 0 0 1-4.899-4.899v-.98a4.9 4.9 0 0 1 4.899-4.899h108.751a4.9 4.9 0 0 1 4.899 4.899z" style="fill:#003154"/><path d="M523.023 435.663a4.9 4.9 0 0 1-4.899 4.899h-25.473a4.9 4.9 0 0 1-4.899-4.899V330.831a4.9 4.9 0 0 1 4.899-4.899h25.473a4.9 4.9 0 0 1 4.899 4.899zM426.477 436.643a4.9 4.9 0 0 1-4.899 4.899h-108.75a4.9 4.9 0 0 1-4.899-4.899v-.98a4.9 4.9 0 0 1 4.899-4.899h108.751a4.9 4.9 0 0 1 4.899 4.899z" style="fill:#003154"/><path d="M473.005 99.627H362.951c-6.043 0-10.942 4.899-10.942 10.942v42.617c0 6.043 4.899 10.942 10.942 10.942h15.184v28.739l16.111-28.739h78.758c6.043 0 10.942-4.899 10.942-10.942v-42.617c.001-6.043-4.898-10.942-10.941-10.942" style="fill:#ff5640"/><g style="opacity:.25"><circle cx="386.627" cy="132.777" r="7.185"/><circle cx="419.938" cy="132.777" r="7.185"/><circle cx="453.249" cy="132.777" r="7.185"/></g><circle cx="384.667" cy="130.817" r="7.185" style="fill:#fff"/><circle cx="417.978" cy="130.817" r="7.185" style="fill:#fff"/><circle cx="451.289" cy="130.817" r="7.185" style="fill:#fff"/><path d="m243.826 100.649-5.931 4.611a43.2 43.2 0 0 0 12.693 11.088l3.749-6.516a36 36 0 0 0 13.272 4.483l-.973 7.45a43.2 43.2 0 0 0 16.897-1.114l-1.947-7.256a35.8 35.8 0 0 0 12.621-6.258l4.619 5.924a43.2 43.2 0 0 0 11.066-12.656l-6.512-3.754a36 36 0 0 0 4.496-13.265l7.449.981a43.3 43.3 0 0 0-1.096-16.898l-7.257 1.94a35.8 35.8 0 0 0-6.21-12.577l5.945-4.596-.079-.103A43.2 43.2 0 0 0 293.857 41l-3.734 6.523a36 36 0 0 0-13.28-4.456l.958-7.451a43.2 43.2 0 0 0-16.896 1.148l1.963 7.255a35.8 35.8 0 0 0-12.566 6.25l-4.602-5.937a43.2 43.2 0 0 0-11.11 12.732l6.518 3.741a36 36 0 0 0-4.47 13.275l-7.45-.966a43.2 43.2 0 0 0 1.13 16.896l7.257-1.955a35.7 35.7 0 0 0 6.251 12.594m41.913-32.371c5.745 7.432 4.372 18.152-3.06 23.897s-18.153 4.372-23.897-3.06c-5.745-7.432-4.372-18.153 3.06-23.897 7.432-5.745 18.152-4.372 23.897 3.06" style="fill:#22689e"/><path d="m197.665 130.471-2.639 4.801a31.5 31.5 0 0 0 11.704 3.757l.627-5.446c3.442.396 6.903.101 10.183-.833l1.501 5.27a31.5 31.5 0 0 0 10.993-5.629l-3.401-4.296a26.1 26.1 0 0 0 6.643-7.837l4.805 2.632a31.5 31.5 0 0 0 3.753-11.673l-5.446-.632a26.2 26.2 0 0 0-.823-10.182l5.272-1.496a31.5 31.5 0 0 0-5.617-10.999l-4.299 3.396a26.1 26.1 0 0 0-7.793-6.627l2.653-4.796-.083-.046a31.5 31.5 0 0 0-11.769-3.764l-.616 5.447a26.2 26.2 0 0 0-10.18.853l-1.511-5.266a31.6 31.6 0 0 0-10.983 5.651l3.411 4.291a26.1 26.1 0 0 0-6.609 7.816l-4.797-2.646a31.5 31.5 0 0 0-3.76 11.736l5.446.622a26.3 26.3 0 0 0 .843 10.181l-5.268 1.506a31.5 31.5 0 0 0 5.639 10.988l4.294-3.406a26.1 26.1 0 0 0 7.827 6.627m18.712-33.788c5.995 3.317 8.173 10.892 4.857 16.887-3.317 5.995-10.892 8.173-16.887 4.857-5.995-3.317-8.173-10.892-4.857-16.887 3.317-5.995 10.893-8.174 16.887-4.857" style="fill:#f66"/><circle cx="129.312" cy="195.426" r="54.212" style="fill:#22689e"/><g style="opacity:.25"><path d="M134.559 196.111a5.1 5.1 0 0 1 2.324-.556c1.362 0 2.642.529 3.608 1.489l2.078-2.077c5.141 1.802 11.089.648 15.199-3.462a14.6 14.6 0 0 0 4.094-12.703 1.333 1.333 0 0 0-2.258-.73l-3.085 3.085a6.433 6.433 0 1 1-9.099-9.099l3.086-3.084a1.334 1.334 0 0 0-.73-2.259c-4.486-.728-9.244.635-12.702 4.094-4.172 4.172-5.295 10.234-3.376 15.428l-4.506 4.506zM126.347 204.278l-5.345-5.345-18.69 18.69a6.223 6.223 0 0 0 8.8 8.8l16.111-16.112a5.13 5.13 0 0 1-.876-6.033"/><path d="M138.268 199.287a1.95 1.95 0 0 0-1.385-.574 1.95 1.95 0 0 0-1.384.574l-1.116 1.115-19.875-19.874.929-.929a1.958 1.958 0 0 0-.223-2.96l-8.109-5.972a1.96 1.96 0 0 0-2.545.192l-3.443 3.443a1.956 1.956 0 0 0-.192 2.545l5.972 8.109a1.957 1.957 0 0 0 2.96.224l.929-.929 19.874 19.874-1.194 1.195a1.956 1.956 0 0 0 0 2.768l18.334 18.335a6.224 6.224 0 0 0 8.801-8.8z"/></g><path d="M132.599 194.152a5.1 5.1 0 0 1 2.325-.556c1.362 0 2.642.53 3.608 1.489l2.078-2.077c5.141 1.802 11.089.648 15.2-3.462a14.6 14.6 0 0 0 4.094-12.703 1.333 1.333 0 0 0-2.258-.73l-3.085 3.085a6.433 6.433 0 1 1-9.099-9.099l3.085-3.084a1.334 1.334 0 0 0-.73-2.259c-4.486-.728-9.244.635-12.702 4.094-4.172 4.172-5.295 10.234-3.376 15.428l-4.506 4.506zM124.388 202.318l-5.345-5.345-18.69 18.69a6.223 6.223 0 0 0 8.8 8.8l16.112-16.112a5.12 5.12 0 0 1-.877-6.033" style="fill:#fff"/><path d="M136.309 197.328a1.953 1.953 0 0 0-2.769 0l-1.116 1.115-19.875-19.874.929-.929a1.958 1.958 0 0 0-.223-2.96l-8.11-5.972a1.96 1.96 0 0 0-2.545.192l-3.443 3.443a1.956 1.956 0 0 0-.192 2.545l5.972 8.109a1.957 1.957 0 0 0 2.96.224l.929-.929 19.874 19.874-1.194 1.195a1.956 1.956 0 0 0 0 2.768l18.334 18.335a6.224 6.224 0 0 0 8.801-8.8z" style="fill:#fff"/><circle cx="543.632" cy="179.561" r="52.253" style="fill:#ffa94d"/><g style="opacity:.25"><path d="m579.168 160.923-20.731 20.598 20.731 20.598a5.9 5.9 0 0 0 .602-2.574v-36.048c0-.925-.228-1.791-.602-2.574M549.839 184.454l26.497-26.363a5.9 5.9 0 0 0-2.574-.602h-56.341c-.925 0-1.791.227-2.574.602l26.497 26.363a6.01 6.01 0 0 0 8.495 0M512.015 160.923a5.9 5.9 0 0 0-.602 2.574v36.048c0 .925.227 1.791.602 2.574l20.731-20.598z"/><path d="M552.671 187.286c-3.904 3.904-10.256 3.904-14.159 0l-2.933-2.934-20.731 20.598a5.9 5.9 0 0 0 2.574.602h56.341c.925 0 1.791-.227 2.574-.602l-20.731-20.598z"/></g><path d="m577.208 158.963-20.731 20.598 20.731 20.598a5.9 5.9 0 0 0 .602-2.574v-36.048c0-.925-.227-1.79-.602-2.574M547.88 182.495l26.497-26.363a5.9 5.9 0 0 0-2.574-.602h-56.341c-.925 0-1.791.227-2.574.602l26.497 26.363a6.014 6.014 0 0 0 8.495 0M510.056 158.963a5.9 5.9 0 0 0-.602 2.574v36.048c0 .925.227 1.791.602 2.574l20.731-20.598z" style="fill:#fff"/><path d="M550.712 185.326c-3.904 3.904-10.256 3.904-14.159 0l-2.934-2.934-20.731 20.598a5.9 5.9 0 0 0 2.574.602h56.341c.925 0 1.791-.227 2.574-.602l-20.731-20.598z" style="fill:#fff"/><circle cx="587.06" cy="78.843" r="37.556" style="fill:#22689e"/><path d="m591.153 88.432-8.859-.712V76.892q.382.219 1.696.465 1.312.247 2.296.247 2.242 0 3.856-1.177 1.613-1.175 1.613-3.089-.001-1.806-1.177-3.035-1.175-1.23-3.362-1.23-2.134 0-3.282 1.284-1.148 1.288-1.531 3.146l-6.727-2.735q.274-3.117 2.134-5.714t4.811-4.13a13.6 13.6 0 0 1 6.344-1.531q3.883 0 6.945 2.023a13.94 13.94 0 0 1 4.76 5.305q1.693 3.28 1.693 6.892 0 3.937-1.967 6.671-1.97 2.735-4.648 4.019-2.681 1.286-4.704 1.23zm-8.532 12.003q-1.64-1.776-1.64-4.183 0-2.46 1.778-4.157 1.777-1.694 4.128-1.696 2.187 0 3.747 1.533 1.558 1.531 1.558 4.101.001 2.57-1.558 4.375t-3.965 1.805q-2.406-.002-4.048-1.778" style="opacity:.25"/><path d="m589.193 86.472-8.858-.712V74.933q.382.219 1.696.465 1.312.247 2.296.247 2.241 0 3.856-1.177 1.613-1.176 1.613-3.089-.001-1.806-1.177-3.035t-3.362-1.23q-2.134.002-3.282 1.284-1.148 1.288-1.531 3.146l-6.727-2.735q.274-3.117 2.134-5.714t4.811-4.13a13.6 13.6 0 0 1 6.344-1.531q3.883 0 6.945 2.023a13.94 13.94 0 0 1 4.76 5.305q1.692 3.28 1.693 6.891 0 3.936-1.967 6.671-1.97 2.735-4.648 4.019-2.681 1.286-4.704 1.23zm-8.531 12.003q-1.64-1.776-1.64-4.183 0-2.46 1.778-4.157c1.184-1.128 2.561-1.696 4.128-1.696q2.188 0 3.747 1.533t1.558 4.101c0 2.569-.518 3.171-1.558 4.375q-1.559 1.805-3.965 1.805-2.407-.001-4.048-1.778" style="fill:#fff"/><circle cx="656.235" cy="160.186" r="37.556" style="fill:#ff5640"/><g style="opacity:.25"><path d="M654.167 172.878a4.814 4.814 0 1 0 0 9.627 4.814 4.814 0 0 0 0-9.627M668.216 172.878a4.814 4.814 0 1 0 0 9.627 4.814 4.814 0 0 0 0-9.627M676.419 167.966h-25.101l-.491-2.849h20.631a1.47 1.47 0 0 0 1.375-.933l4.912-12.379a1.473 1.473 0 0 0-1.376-2.014h-28.097l-1.179-6.779a1.474 1.474 0 0 0-1.474-1.228h-5.649a1.474 1.474 0 0 0 0 2.948h4.421l4.224 24.954a1.474 1.474 0 0 0 1.474 1.228h26.329a1.474 1.474 0 0 0 .001-2.948"/></g><path d="M652.207 170.919a4.814 4.814 0 1 0 0 9.627 4.814 4.814 0 0 0 0-9.627M666.256 170.919a4.814 4.814 0 1 0 0 9.627 4.814 4.814 0 0 0 0-9.627M674.459 166.007h-25.101l-.491-2.849h20.631a1.47 1.47 0 0 0 1.375-.933l4.912-12.379a1.473 1.473 0 0 0-1.376-2.014h-28.098l-1.179-6.779a1.474 1.474 0 0 0-1.474-1.228h-5.649a1.474 1.474 0 0 0 0 2.948h4.421l4.224 24.954a1.474 1.474 0 0 0 1.474 1.228h26.329a1.474 1.474 0 0 0 .002-2.948" style="fill:#fff"/></svg>