<svg xmlns="http://www.w3.org/2000/svg" xml:space="preserve" viewBox="0 0 2312 1947"><path d="M-.004 0h2311.66v1946.656H-.004z" style="fill:#ffe6cc"/><path d="M2028.199 1678.617c0 45.555-390.574 82.48-872.375 82.48-481.797 0-872.371-36.926-872.371-82.48 0-45.547 390.574-82.477 872.371-82.477 481.801.001 872.375 36.93 872.375 82.477" style="fill:#ebc2ab"/><path d="M640.668 323.316s-44.465.043-36.723-50.535c0 0 26.777 25.285 55.445 14.82.001.001 2.173 33.946-18.722 35.715" style="fill:#963222"/><path d="m560.105 561.769-14.133 3.078s-38.652 166.32-24.109 205.805c14.543 39.488 37.914.395 45.215-3.176 7.301-3.574 71.918-186.598 71.918-186.598z" style="fill:#e59375"/><path d="m511.398 749.836 25.41-193.164c15.133-50.824 70.98-32.055 70.98-32.055 41.891 15.535 35.223 48.496 35.223 48.496l-57.363 198.473s-10.863 30.133-50.668 26.125c0 0-28.972-6.922-23.582-47.875" style="fill:#001940"/><path d="M579.84 1598.434s-7.504 29.207-16.727 37.129c-9.215 7.922-44.402 19.574-44.402 19.574l-19.492 2.801s-13.543 9.715 23.641 19.93c37.18 10.223 102.441-20.617 102.441-20.617l-14.707-59.703zM775.938 1662.012c6.566-10.227 20.316-65.957 20.316-65.957l30.383-.922 19.012 61.363s3.051 10.27-3.156 14.117c0 0-37.887 13.152-70.246-.629-.001 0 .343-2.742 3.691-7.972" style="fill:#2c080d"/><path d="M587.586 815.754 548.793 578.66s-13.367-35.641 13.367-53.453l101.887-47.894h71.859l122.492 72.398-80.289 266.043z" style="fill:#f7a483"/><path d="M778.109 815.754s22 50.238 27.309 165.731c0 0-165.598 51.941-217.539 0l-.293-165.731z" style="fill:#00264e"/><path d="M669.547 980.981c-.281 38.758 29.902 70.402 67.414 70.676 37.523.273 68.172-30.918 68.457-69.676.281-38.754-29.902-70.387-67.418-70.668-37.52-.278-68.168 30.921-68.453 69.668" style="fill:#00264e"/><path d="m805.352 990.527 18.023 330.051s-31.898 41.832-88.352-5.359l-61.289-303.598s29.75-102.031 131.618-21.094" style="fill:#00264e"/><path d="M809.32 1282.039s31.031 59.023 25.984 155.516l5.047 180.402-51.207 1.527-53.816-303.336s28.516-101.832 73.992-34.109M588.188 981.668c-3.93 38.555 9.848 71.543 47.172 75.348 37.328 3.813 70.777-24.359 74.711-62.914 3.93-38.563-23.137-72.898-60.465-76.703-37.329-3.813-57.485 25.714-61.418 64.269" style="fill:#00264e"/><path d="m694.141 1032.43-38.301 301.676s-67.769 9.016-80.973-37.117c0 0-.848-212.945 13.32-315.32.001-.001 91.813-44.72 105.954 50.761" style="fill:#00264e"/><path d="M651.574 1307.371s12.25 45.188.981 118.004l-27.816 203.766-54.809-3.871 4.938-328.281c-.001-.001 30.163-45.622 76.706 10.382" style="fill:#00264e"/><path d="m847.691 578.856 13.965 3.73s21.789 167.184 5.434 205.953c-16.336 38.766-31.711.313-38.836-3.59C821.129 781.039 768 594.313 768 594.313z" style="fill:#f7a483"/><path d="m810.18 783.449-45.773-196.898c9.449-53.246 60.133-49.5 60.133-49.5 44.496 4.047 46.684 37.598 46.684 37.598l2.945 200.254s2.934 34.227-22.863 32.41c-.001 0-36.919-5.77-41.126-23.864" style="fill:#001940"/><path d="M736.266 424.945v76.805h-81.223s19.976-30.445 9.984-76.805z" style="fill:#f7a483"/><path d="M695.063 490.168c-7.32 4.707-22.875 14.734-31.758 8.871-2.387-1.582-3.492-3.652-3.852-5.957 5.223-12.164 12.406-36.426 5.574-68.137h71.238v6.965c-8.89 22.481-20.288 44.774-41.202 58.258" style="fill:#e1876f"/><path d="M738.203 426.02s13.824-6.004 29.473-40.215c0 0 33.984-40.457 9.898-86.387 0 0-14.23-38.84-83.191-27.965 0 0-6.203 104.09 43.82 154.567" style="fill:#f8a07d"/><path d="m653.281 446.789-4.602-12.035s-12.691-44.809-12.691-44.816c-1.594-5.633-1.684-13.176-.664-18.969 1.117-6.297 1.828-12.879.188-19.527-8.008-32.223 8.508-50.516 8.508-50.516 18.199-30.391 62.992-31.402 62.992-31.402 55.465 1.441 61.371 54.941 61.371 54.941 9.82 35.445-17.855 65.801-17.914 65.863-2.211 2.418-.774 14.129-1.375 17.48-2.598 14.293-16.008 23.359-27.934 29.668-13.102 6.926-28.973 14.336-43.77 16.039-5.605.649-21.476.184-24.109-6.726" style="fill:#f7a483"/><path d="M791.297 809.316c-.168 7.894 11.824 90.535 6.789 91.59-.031.012-137.098 31.598-210.207 0l-.293-85.152-38.793-237.094s-13.367-35.641 13.367-53.453l101.887-47.894-6.879 20.656 14.734 41.895 64.004-62.551 122.492 72.398c-6.844 22.684-13.648 45.375-20.496 68.059-12.629 41.816-24.914 83.758-37.926 125.461.001 0-10.761 45.226-8.679 66.085" style="fill:#fff"/><path d="m680.742 492.223.852 38.171 14.054-13.746z" style="fill:#a5c6c7"/><path d="M662.84 553.773a5.446 5.446 0 1 0 10.894 0c0-3-2.445-5.438-5.445-5.438a5.445 5.445 0 0 0-5.449 5.438M662.84 652.688c0 3 2.438 5.438 5.449 5.438 3 0 5.445-2.438 5.445-5.438a5.445 5.445 0 0 0-5.445-5.449 5.44 5.44 0 0 0-5.449 5.449M662.84 751.582a5.45 5.45 0 0 0 5.449 5.457 5.448 5.448 0 1 0-5.449-5.457M662.84 850.492c0 3 2.438 5.445 5.449 5.445 3 0 5.445-2.445 5.445-5.445a5.453 5.453 0 0 0-5.445-5.449 5.45 5.45 0 0 0-5.449 5.449" style="fill:#cfeae6"/><path d="M680.742 534.746v375.36" style="fill:none;stroke:#cfeae6;stroke-width:2.9481;stroke-miterlimit:10"/><path d="M588.719 908.731s70.012 32.801 213.301-.723c2.356-.563 1.359-6.672 1.359-6.672l-1.359-13.797c-.625-4.422-3.094-4.211-3.094-4.211-.031.008-137.102 31.598-210.207 0 0 0-2.949-.516-3.07 3.91v17.199c-.001.001-.001 3.434 3.07 4.294" style="fill:#471f08"/><path d="M659.844 919.137c0 2.184 1.73 3.961 3.867 3.961h27.883c2.129 0 3.863-1.777 3.863-3.961v-20.082c0-2.184-1.734-3.957-3.863-3.957h-27.883c-2.137 0-3.867 1.773-3.867 3.957zM695.457 907.832h-14.762" style="fill:none;stroke:#bcbec0;stroke-width:4.8231;stroke-miterlimit:10"/><path d="M680.742 491.363s44.945-17.457 55.523-34.84l13.277 25.316-47.379 45.437-21.422-35.055" style="fill:#bfe5e5"/><path d="M642.25 303.234c2.023-14.637 49.711-6.816 62.195-4.535 7.512 1.379 16.32 3.668 20.41 11.055 1.512 2.727 7.543 21.797.117 31.344 6.559 20.527 8.098 36.398 8.098 36.398l3.797.211c7.453 19.234 8.918 42.352 8.918 42.352s27.828-11.996 47.141-62.785c19.551-64.672-28.519-93.164-28.519-93.164-44.082-19.137-88.082-13.902-88.082-13.902s-44.352 4.055-54.367-22.414c-.001-.001-28.087 60.749 20.292 75.44" style="fill:#963222"/><path d="M742.16 395.547c1.965 1.66 4.543 2.691 7.809 2.789 8.84.277 16.551-7.645 17.23-17.695.68-10.031-5.926-18.402-14.758-18.684-4.188-.129-8.137 1.582-11.18 4.492-4.441 4.242-4.961 12.414-4.223 18.105.595 4.548 2.181 8.501 5.122 10.993" style="fill:#f7a483"/><path d="M748.438 371.152c.769-5.258 11.199.285 9.453 3.176-1.019 1.676-2.945 2.832-4.473 3.965-2.086 1.563-3.141 3.008-3.547 5.617-.055.301-.148 1.215.144 1.449 1.336 1.023 6.102-3.93 7.148-4.961 2.047-2.047 2.492-5.691 1.672-8.383-.871-2.859-2.652-4.277-5.68-4.227-2.395.023-4.852.074-4.844 3.059.002.075.083.571.127.305" style="fill:#e98b6f"/><path d="M751.594 376.785c-1.051-1.168-2.152-.293-3.336.477-1.086.719-1.73 1.785-2.059 3.027-.738 2.711-.531 6.395.926 8.859 1.18 1.996 3.258 3.277 5.59 3.324 3.219.047 4.301-2.746 4.559-5.461.066-.723.203-2.449-.492-2.926-.738-.512-1.348.645-1.883 1.137-.746.652-1.816.859-2.766.898-1.848.078-3.594-.938-4.691-2.355a3 3 0 0 1-.445-.848c-.074 1.781-.008 2.188.227 1.211.168-.453.387-.855.672-1.227.797-1.203 2.094-1.988 2.977-3.117.424-.526 1.248-2.397.721-2.999" style="fill:#e98b6f"/><path d="m756.258 489.344-54.484 191.391 8.086 347.746s93.5 6.969 130.492-26.508l-34.926-215.27 52.973-236.992zM635.586 490.688l-62.043 29.16s-35.313 9.324-28.094 45.91l20.406 202.68-33.82 233.535s29.023 34.84 86.793 14.371l25.445-340.773z" style="fill:#001940"/><path d="M642.785 493.305s4.133-15.992 24.395-29.496l-2.648 55.109c-.001 0-11.247-28.191-21.747-25.613" style="fill:#bfe5e5"/><path d="m640.941 518.918 1.844-25.613c6.188-1.52 11.723 7.145 16.227 14.246z" style="fill:#a5c6c7"/><path d="m685.164 506.02 1.66-3.098 11.301 17.347-9.719 3.462zM659.012 507.551l-3.172-4.855s-12.07 10.144.606 21.035c-.001 0-.005-8.973 2.566-16.18" style="fill:#d83633"/><path d="M685.164 506.02s-9.582 8.516-26.152 1.531c-3.625 4.609-3.613 10.48-2.566 16.18l8.586 17.703h11.992l11.383-17.703c-.001 0 1.175-3.907-3.243-17.711" style="fill:#d83633"/><path d="m677.023 541.434 9.684 253.335-20.223 39.356-16.504-39.152 15.051-253.539z" style="fill:#a62724"/><path d="m744.012 701.988 24.91-19.676s37.5-5.5 56.23-3.137c0 0 6.188 8.609-41.105 9.93 0 0 33.164 10.594 43.82 18.48 0 0 1.703 9.816-28.629-4.441l-13.805-1.016 32.09 16.019s-1.25 6.109-30.473-1.828l-29.305 3.211z" style="fill:#f7a483"/><path d="m584.5 705.641 160.523-19.195c8.027 9.801 15.754 27.598 12.316 46.227L552.3 797.704s-54.172 9.609-39.887-55.629c.001-.001 22.888-33.262 72.087-36.434" style="fill:#00153b"/><path d="M584.5 705.641s28.848 15.551 39.664 16.781l16.777-28.961-22.926-14.871-15.719-3.621s-25.855-6.672-32.676 28.813z" style="fill:#f7a483"/><path d="M871.484 761.809c9.695 58.652-32.957 43.836-32.957 43.836l-217.504-78.277c6.129-33.703 19.918-38.977 19.918-38.977l186.027 35.492c.001 0 35.001 11 44.516 37.926" style="fill:#002952"/><path d="M1671.004 363.594c-5.039 5.02-6.926 12.582-9.363 19.273-18.82-24.816-32.66-73.555-5.863-95.895 40.265-33.57 41.074 50.887 15.226 76.622" style="fill:#3c2415"/><path d="m1757.359 1030.965 3.117 20.973-12.207 27.809s5.164 4.621 10.871-4.5l10.875-22.934-1.527-23.621z" style="fill:#ca8268"/><path d="m1762.957 1038.055 4.266 20.766-10.617 28.453s5.402 4.32 10.594-5.109l9.582-23.504-2.852-23.492z" style="fill:#ca8268"/><path d="m1786.395 1042.707-3.797-24.383-4.184-30.254-18.93-2.621-6.504 31.902-1.582 16.75-1.898 22.879-1.012 7.387s5.926 1.91 10.535-9.844l4.828-21.578 8.207 16.957-6.953 29.777s1.781 15.543 6.441 9.68l15.656-41.789z" style="fill:#e59375"/><path d="M1713.563 782.004s41.898 165.102 45.922 203.445c0 0 16.27 19.32 18.93 2.621 5.324-33.332-2.238-207.867-10.762-221.68-8.52-13.816-54.09 15.614-54.09 15.614" style="fill:#e59375"/><path d="m1747.566 583.086 13.746 4.484s21.781 169.355 3.348 207.18c-18.418 37.832-39.633-.184-46.535-4.469-6.902-4.289-50.969-196.09-50.969-196.09z" style="fill:#e59375"/><path d="m1777.164 775.09-8.793-212.16c-9.957-52.078-63.277-36.574-63.277-36.574-43.238 11.254-41.168 59.711-41.168 59.711l37.184 203.219s7.793 31.074 47.793 31.074c-.001-.001 29.515-3.981 28.261-45.27" style="fill:#010c18"/><path d="m1751.621 990.727.664 19.308 33.59-1.16-.66-19.301z" style="fill:#fff"/><path d="M1704.777 796.426s18.551 124.715 45.16 201.109c0 0 22.828 2.137 35.824-1.242 0 0 1.984-178.824-12.742-236.684.001 0-73.535 1.532-68.242 36.817" style="fill:#010c18"/><path d="M1731.813 1585.352s7.504 29.211 16.727 37.129c9.215 7.926 44.402 19.574 44.402 19.574l19.492 2.801s13.543 9.715-23.641 19.934c-37.18 10.223-102.441-20.617-102.441-20.617l14.707-59.707zM1533.137 1665.68c-6.566-10.223-20.316-65.957-20.316-65.957l-30.379-.918-19.012 61.359s-3.051 10.273 3.152 14.121c0 0 37.891 13.148 70.25-.629 0 0-.344-2.746-3.695-7.976" style="fill:#2c080d"/><path d="m1721.492 819.422 38.789-237.09s13.371-35.644-13.363-53.457l-101.887-47.891h-71.859l-122.492 72.391 80.285 266.047z" style="fill:#f7a483"/><path d="M1530.965 819.422s-22 50.242-27.309 165.73c0 0 165.602 51.941 217.543 0l.293-165.73z" style="fill:#000210"/><path d="M1639.527 984.648c.281 38.758-29.898 70.402-67.41 70.68-37.523.273-68.172-30.918-68.457-69.676-.285-38.754 29.898-70.391 67.418-70.668 37.52-.281 68.164 30.918 68.449 69.664" style="fill:#000210"/><path d="m1503.723 994.199-18.012 295.125s31.887 76.754 88.344 29.566l61.285-303.598c0 .001-29.75-102.03-131.617-21.093" style="fill:#000210"/><path d="M1485.711 1289.324s-16.988 55.41-11.941 151.902l-5.047 180.398 62.52 1.242 42.508-303.047c-.001.001-42.56-98.221-88.04-30.495M1720.887 985.336c3.93 38.555-9.848 71.543-47.172 75.352-37.324 3.813-70.773-24.359-74.707-62.918-3.93-38.559 23.137-72.898 60.461-76.703 37.328-3.809 57.484 25.718 61.418 64.269" style="fill:#000210"/><path d="m1614.938 1036.102 34.293 271.906s74.352 32.965 87.555-13.164c0 0-1.727-207.129-15.898-309.508-.001 0-91.81-44.715-105.95 50.766" style="fill:#000210"/><path d="M1649.23 1296.898s-10.434 39.879.832 112.695l25.797 206.086 65.863-3.488-4.938-328.285c.001 0-41.007-43.011-87.554 12.992" style="fill:#000210"/><path d="M1466.465 798.297c-14.004 140.414-8.262 149.711-6.801 206.027 0 0-7.477 19.816-20.199 8.684-12.734-11.113-33.043-198.113-26.645-213.027 9.516-22.141 53.645-1.684 53.645-1.684" style="fill:#f7a483"/><path d="m1457.598 998.727 19.75 19.742 16.777 24.586c-8.305 5.59-17.008-8.172-17.008-8.172 5.426 21.676 15.965 40.797 15.965 40.797 2.547 7.773-4.789 7.195-4.789 7.195-8.188-8.41-18.68-33.223-18.68-33.223 3.941 14.777 13.965 38.336 13.965 38.336.945 6.758-5.828 4.836-5.828 4.836-13.938-8.25-18.563-38.344-18.563-38.344 1.387 11.418 10.383 34.863 10.383 34.863-1.617 4.645-3.875 3.063-3.875 3.063-12.043-4.84-16.41-33.816-16.41-33.816l1.918 10.805c3.938 14.563-5.086 10.805-5.086 10.805l-3.254-7.301c-9.523-22.41-6.648-42.578-6.648-42.578l.059-26.203zM1497.551 557.731c-47.289-10.766-63.449 32.941-63.449 32.941s-23.742 145.492-23.453 207.84c.191 42.074 51.531 8.191 54.902.793 7.438-16.32 61.387-191.566 61.387-191.566s2.812-41.176-29.387-50.008" style="fill:#f7a483"/><path d="m1473.551 801.75 61.328-198.836c-1.379-49.43-49.746-56.805-49.746-56.805-45.484-4.355-55.449 34.781-55.449 34.781l-22.004 199.059s-7.457 44.746 18.391 45.391c-.001 0 43.378 4.703 47.48-23.59" style="fill:#091420"/><path d="M1431.289 989.065h33.609v19.314h-33.609z" style="fill:#fff" transform="rotate(-11.304 1448.045 998.734)"/><path d="M1477.27 789.688s-7.941 167.039-10.805 201.195l-37.289 7.844s-33.715-167.406-21.496-218.777c0-.001 48.726-26.587 69.59 9.738" style="fill:#091420"/><path d="M1572.813 428.617v76.805h81.219s-19.973-30.449-9.98-76.805z" style="fill:#f7a483"/><path d="M1614.016 493.84c7.316 4.707 22.875 14.734 31.754 8.871 2.391-1.586 3.492-3.656 3.855-5.961-5.227-12.164-12.41-36.426-5.574-68.133h-71.238v6.961c8.886 22.485 20.285 44.777 41.203 58.262" style="fill:#e1876f"/><path d="M1570.871 429.691s-13.824-6.008-29.473-40.219c0 0-33.98-40.453-9.898-86.383 0 0 14.234-38.844 83.195-27.973 0 .001 6.2 104.095-43.824 154.575" style="fill:#f8a07d"/><path d="m1655.797 450.461 4.602-12.035s12.691-44.813 12.691-44.82c1.59-5.633 1.684-13.172.664-18.965-1.117-6.301-1.828-12.883-.188-19.527 8.008-32.227-8.508-50.52-8.508-50.52-18.199-30.387-62.996-31.402-62.996-31.402-55.465 1.441-61.367 54.941-61.367 54.941-9.824 35.449 17.859 65.801 17.91 65.867 2.211 2.414.777 14.125 1.375 17.477 2.598 14.297 16.008 23.363 27.934 29.668 13.102 6.926 28.973 14.336 43.77 16.035 5.609.656 21.48.191 24.113-6.719" style="fill:#f7a483"/><path d="M1517.777 812.981c.168 7.902-11.824 90.539-6.789 91.598.031.004 137.105 31.594 210.211 0l.293-85.156 38.789-237.09s13.371-35.644-13.363-53.457l-101.887-47.891 6.875 20.652-14.73 41.899-64.004-62.551-122.492 72.391c6.84 22.688 13.648 45.379 20.492 68.063 12.629 41.82 24.918 83.758 37.93 125.461 0-.002 10.761 45.229 8.675 66.081" style="fill:#fff"/><path d="m1628.332 495.895-.844 38.168-14.062-13.743z" style="fill:#d1d3d4"/><path d="M1646.238 557.445a5.445 5.445 0 0 1-5.449 5.445 5.45 5.45 0 0 1-5.449-5.445 5.45 5.45 0 0 1 5.449-5.441 5.444 5.444 0 0 1 5.449 5.441M1646.238 656.356a5.44 5.44 0 0 1-5.449 5.438c-3.004 0-5.449-2.434-5.449-5.438a5.45 5.45 0 0 1 5.449-5.449 5.44 5.44 0 0 1 5.449 5.449M1646.238 755.254a5.45 5.45 0 0 1-5.449 5.453 5.454 5.454 0 0 1-5.449-5.453 5.45 5.45 0 0 1 10.898 0M1646.238 854.16a5.45 5.45 0 0 1-5.449 5.449 5.456 5.456 0 0 1-5.449-5.449 5.456 5.456 0 0 1 5.449-5.449 5.45 5.45 0 0 1 5.449 5.449" style="fill:#e6e7e8"/><path d="M1628.332 538.414v375.355" style="fill:none;stroke:#e6e7e8;stroke-width:2.9481;stroke-miterlimit:10"/><path d="M1720.352 912.398s-70.008 32.801-213.297-.723c-2.355-.559-1.355-6.672-1.355-6.672l1.355-13.793c.629-4.422 3.094-4.211 3.094-4.211.035.004 137.102 31.59 210.203 0 0 0 2.953-.516 3.078 3.91v17.195c0 .002 0 3.439-3.078 4.294" style="fill:#471f08"/><path d="M1649.23 922.809c0 2.184-1.727 3.957-3.863 3.957h-27.887c-2.129 0-3.859-1.773-3.859-3.957v-20.086c0-2.18 1.73-3.957 3.859-3.957h27.887c2.137 0 3.863 1.777 3.863 3.957zM1613.621 911.5h14.758" style="fill:none;stroke:#bcbec0;stroke-width:4.8231;stroke-miterlimit:10"/><path d="M1628.332 495.035s-44.941-17.457-55.52-34.844l-13.281 25.316 47.383 45.441 21.418-35.055" style="fill:#e6e7e8"/><path d="M1584.219 313.426c-1.508 2.727-7.543 21.793-.113 31.34-15.66 12.027-8.098 36.398-8.098 36.398l-3.801.215c-21.961-5.688-14.59 35.863-14.586 35.879-.168-.957-3.82-3.281-4.551-3.977-4.297-4.113-13.352-18.898-16.195-24.109-15.461-28.344-14-29.797-18.148-46.523-2.836-11.43-1.609-42.383 15.02-57.941-.001-.001 19.386-.009 50.472 28.718" style="fill:#3c2415"/><path d="M1566.914 399.219c-1.965 1.66-4.539 2.684-7.809 2.789-8.84.277-16.551-7.645-17.23-17.699-.676-10.027 5.926-18.402 14.758-18.68 4.191-.129 8.137 1.582 11.184 4.488 4.441 4.238 4.957 12.414 4.227 18.105-.599 4.551-2.189 8.501-5.13 10.997" style="fill:#f7a483"/><path d="M1560.641 374.824c-.773-5.262-11.199.285-9.457 3.176 1.023 1.672 2.945 2.832 4.477 3.961 2.086 1.566 3.137 3.012 3.547 5.617.051.305.152 1.219-.148 1.453-1.336 1.023-6.098-3.93-7.145-4.965-2.047-2.043-2.492-5.695-1.676-8.379.871-2.863 2.656-4.281 5.684-4.23 2.395.023 4.848.074 4.844 3.063-.005.074-.087.57-.126.304" style="fill:#e98b6f"/><path d="M1557.48 380.457c1.055-1.172 2.152-.297 3.336.477 1.09.719 1.734 1.781 2.063 3.023.738 2.715.527 6.398-.93 8.863-1.176 1.996-3.254 3.273-5.586 3.324-3.219.047-4.305-2.746-4.559-5.465-.066-.719-.207-2.449.488-2.926.742-.508 1.348.648 1.883 1.141.746.652 1.816.855 2.766.895 1.848.082 3.598-.938 4.695-2.355.184-.25.348-.551.445-.844.074 1.777.004 2.188-.23 1.207a4.9 4.9 0 0 0-.668-1.227c-.797-1.199-2.098-1.984-2.973-3.117-.429-.523-1.257-2.398-.73-2.996" style="fill:#e98b6f"/><path d="m1552.82 493.016 54.48 191.387-8.082 347.75s-84.66-5.184-121.656-38.66l26.09-203.117-52.973-237z" style="fill:#091420"/><path d="m1552.82 493.016 54.48 191.387-.227 9.09-68.625-70.234s-7.207-12.188 2.559-19.402l16.207-15.508-11.559-8.297s-16.219-7.863-14.246-22.605l4.641-55.422z" style="fill:#1f3038"/><path d="m1673.492 494.359 62.043 29.16s35.309 9.324 28.09 45.91l-20.402 202.676 10.219 214.758s8.742 39.906-63.191 33.144l-25.449-340.766z" style="fill:#091420"/><path d="M1666.293 496.977s-4.133-15.992-24.395-29.5l2.648 55.109c.001 0 11.243-28.188 21.747-25.609" style="fill:#e6e7e8"/><path d="m1668.133 522.586-1.84-25.609c-6.188-1.52-11.723 7.141-16.23 14.242z" style="fill:#d1d3d4"/><path d="m1673.492 494.359 15.992 7.52 11.555 53.363s5.789 13.813-2.594 17.426l-15.078 8.793 21.25 13.449s11.184 7.008 4.301 17.324l-42.625 83.223-1.344-14.23z" style="fill:#1f3038"/><path d="M1566.887 427.297c28.426 26.496 65.039 29.746 65.039 29.746 21.336 2.234 24.219-6.895 24.219-6.895 6.602-11.863 15.984-53.355 15.984-53.355-.289 1.262-9.156-3.23-10.078-3.582-6.938-2.641-14.68-1.938-21.918-1.383-7.082.551-14.383 1.625-20.449 5.578-.711.457-6.172 5.863-6.668 5.793-3.785-.5-12.656-1.844-12.656-1.844-20.523-3.035-24.352-20.191-24.352-20.191l-3.801.215-5.934 25.895c0-.001-4.097 16.468.614 20.023m84.07 5.859c-8.242 5.637-24.512 1.152-29.539-7.563-2.969-5.156-4.527-13.402-2.406-19.055 2.402-6.422 9.691-7.184 15.57-7.93 7.273-.93 15.254-2.172 22.563-.828 3.691.68 3.867 3.402 4.703 7.715 1.578 8.142-3.875 22.853-10.891 27.661" style="fill:#b1775f"/><path d="m1623.914 509.691-1.66-3.097-11.301 17.344 9.715 3.46zM1650.063 511.219l3.176-4.855s12.074 10.145-.609 21.035c-.001-.001.007-8.969-2.567-16.18" style="fill:#0088ce"/><path d="M1623.914 509.691s9.582 8.512 26.148 1.527c3.629 4.613 3.613 10.484 2.566 16.18l-8.586 17.703h-11.988l-11.387-17.703c.001 0-1.175-3.906 3.247-17.707" style="fill:#0088ce"/><path d="m1632.055 545.102-9.688 253.339 20.227 39.356 16.504-39.156-15.055-253.539z" style="fill:#0071ac"/><path d="m1587.402 309.957-18.496-9.195-35.16-16.055s.008-24.105 44.355-33.41c0 0 54.391-8.578 97.652 14.309 0 0 11.797 6.438 21.098.715.001-.001-15.023 62.952-109.449 43.636" style="fill:#3c2415"/><path d="m1422.383 581.781 4.41-165.508c3.141-38.695-12.047-52.734-12.047-52.734-64.547-24.215-97.121 8.477-97.121 8.477v169.098c28.059 26.187 67.855 43.534 104.758 40.667" style="fill:#c4a17e"/><path d="M1247.871 563.922c-33.938 16.59-15.074 56.461-15.074 56.461l45.859 166.902s42.852 17.516 118.035 8.746c10.441-14.945 31.906-77.558 39.098-125.367 5.922-39.375 24.313-78.172 4.277-100.129-7.68-8.414-66.191-16.817-66.484-18.195h-70.422z" style="fill:#f7a483"/><path d="m1403.359 416.273-4.387 164.789c7.844 1.066 15.691 1.32 23.41.719l4.41-165.508c3.141-38.695-12.047-52.734-12.047-52.734-22.996-8.625-41.91-10.012-56.762-8.246 9.957 1.109 21.063 3.645 33.328 8.246.002 0 15.189 14.039 12.048 52.734" style="fill:#d7b089"/><path d="M1354.281 789.047h-.352z" style="fill:#6b3f2c"/><path d="M1434.742 567.285c21.809 10.988 25.277 36.363 21.68 59.418-3.762 24.125-46.926 74.785-57.516 52.781-20.813-43.254-30.539-76.051-21.281-98.645 9.262-22.601 22.184-31.171 57.117-13.554" style="fill:#e59375"/><path d="m1457.195 603.156-50.684-2.297-25.285 38.199s39.293 141.199 60.648 167.895c22.742 28.453 26.727-1.953 29.711-13.918.001 0-6.472-157.894-14.39-189.879" style="fill:#e59375"/><path d="m1469.199 1017.746 3.117 20.969-12.207 27.813s5.164 4.617 10.875-4.504l10.871-22.93-1.523-23.625z" style="fill:#ca8268"/><path d="m1474.797 1024.832 4.27 20.766-10.621 28.457s5.406 4.316 10.594-5.109l9.582-23.508-2.852-23.492z" style="fill:#ca8268"/><path d="m1498.238 1029.488-3.801-24.383-4.18-30.254-18.93-2.621-6.508 31.902-1.582 16.75-1.895 22.875-1.016 7.391s5.926 1.906 10.539-9.848l4.828-21.578 8.207 16.961-6.957 29.777s1.785 15.543 6.445 9.676l15.652-41.789z" style="fill:#e59375"/><path d="M1424.648 772.617s24.531 115.981 46.68 199.613c0 0 16.262 19.32 18.93 2.621 5.32-33.332-12.316-213.988-20.84-227.805-8.52-13.812-44.77 25.571-44.77 25.571M1381.527 1711.18c22.809 3.887 44.68-3.461 44.68-3.461l-23.668-13.922s-25.688-31.238-30.484-42.277c-3.074-7.07-3.938-30.027-3.938-30.027l-29.25 1.734-.066 16.391-10.652 24.887s-.984 11.746 20.281 14.109c0-.001 14.961 16.741 33.097 32.566" style="fill:#e59375"/><path d="M1402.539 1693.797c-7.871 3.68-21.746 4.652-28.934-2.602-28.98-29.172-34.805-51.578-34.805-51.578-14.68 16.117-10.797 29.582-10.797 29.582l1.086 5.563 8.359 42.867 3.012-.176 8.324-35.422 20.336 32.844c48.617 6.383 60.215-6.805 60.215-6.805z" style="fill:#c93232"/><path d="M1401.316 1295.859s-30 311.113-33.199 325.633c0 0-29.539 10.035-29.25 1.734.652-20.039-28.473-148.238-30.379-179.656-3.047-50.453 5.164-84.035 31.406-151.859.001 0 48.29-33.473 61.422 4.148" style="fill:#e59375"/><path d="M1290.422 976.629s-11.207 185.633 40.137 301.359c0 0 22.668 60.918 70.133 26.383 0 0 60.352-294.613 27.156-395.203 0 0-141.239-33.035-137.426 67.461" style="fill:#e59375"/><path d="M1367.992 785.121c5.602-1.016 28.699 10.91 28.699 10.91s28.855 92.711 30.09 106.813c1.242 14.09-95.711 87.07-204.02 45.516 0 0 50.148-130.563 53.215-162.715 3.067-32.157 92.016-.524 92.016-.524" style="fill:#e79675"/><path d="M1396.691 796.031s27.656 83.613 30.09 106.813c8.633 82.141-102.512 116.586-210.816 75.031 0 0-7.027-112.926 60.012-192.231 0 0 17.808 16.243 120.714 10.387" style="fill:#24365f"/><path d="m1294.285 1038.813-78.32-43s12.703 247.82 22.629 317.426c0 0 43.82 12.199 57.395 3.184 40.625-95.297 64.156-302.215 64.156-302.215z" style="fill:#f7a483"/><path d="M1246.836 923.293s-37.586 10.848-29.813 80.492c7.602 68.023 132.699 74.48 144.379 4.738 12.571-75.042-48.312-114.812-114.566-85.23M1299.66 557.418h75.383c-3.422-10.981-10.523-39.391.457-58.727l-76.16-50.012c0 .001 13.539 83.927.32 108.739" style="fill:#f7a483"/><path d="M1369.633 524.457c-.215-8.406 1.172-17.492 5.867-25.766l-76.16-50.012s5.516 34.199 6.078 65.398c27.504 8.743 38.824 12.13 64.215 10.38" style="fill:#e1876f"/><path d="m1387.219 505.535 4.57-11.121 11.453-32.816c1.613-5.223 2.613-12.422 1.063-17.68-1.859-6.32-3.039-16.527-.141-27.727 7.746-29.996-4.906-46.508-4.906-46.508-16.289-28.773-58.043-30.762-58.043-30.762-51.766.059-58.523 49.836-58.523 49.836-9.984 32.844 15.133 61.797 15.184 61.848 3.18 3.664 3.25 9.352 4.648 13.754 1.496 4.707 3.895 9.145 6.938 13.016 6.832 8.695 15.898 17.145 25.383 22.594 8.984 5.172 26.625 10.898 39.324 11.41 5.265.211 10.436.535 13.05-5.844" style="fill:#f7a483"/><path d="M1302.668 470.176c.934-23.59 1.457-22.113 1.457-22.113.898-6.867 13.66 8.676 13.84-.313.809-41.145 16.727-59.938 22.723-62.805 16.285-7.762 33.129-9.387 46.266-6.359 20.586 4.746 18.391 32.359 18.391 32.359 22.844-100.34-91.711-73.727-91.711-73.727-55.719 11.645-52.688 63.754-52.688 63.754-9.563 55.297 43.594 90.121 43.594 90.121z" style="fill:#c4a17e"/><path d="M1306.688 462.336c-1.914 1.324-4.324 2.023-7.277 1.813-7.992-.516-14.25-8.34-13.969-17.449.277-9.094 6.957-16.059 14.938-15.539 3.789.254 7.176 2.141 9.676 5.027 3.637 4.211 3.379 11.629 2.219 16.684-.927 4.042-2.716 7.472-5.587 9.464" style="fill:#f8a07d"/><path d="M1303.18 439.797c-.223-4.805-10.125-.73-8.793 2.035.762 1.594 2.406 2.816 3.672 3.965 1.754 1.578 2.578 2.984 2.707 5.375.023.266.039 1.105-.258 1.281-1.293.805-5.156-4.066-6.004-5.098-1.668-2.027-1.742-5.34-.762-7.695 1.023-2.496 2.758-3.613 5.469-3.305 2.172.234 4.371.496 4.113 3.188-.011.051-.125.496-.144.254" style="fill:#e98b6f"/><path d="M1299.836 444.594c1.066-.949 1.984-.066 2.969.723.918.75 1.395 1.766 1.586 2.898.426 2.516-.078 5.824-1.613 7.918-1.23 1.688-3.219 2.66-5.316 2.492-2.914-.227-3.645-2.844-3.629-5.313 0-.648.031-2.219.688-2.594.727-.406 1.168.703 1.602 1.191.621.645 1.566.938 2.422 1.055 1.652.223 3.32-.535 4.418-1.711.195-.207.387-.461.484-.727-.082 1.613-.184 1.961-.305 1.066a4.4 4.4 0 0 0-.496-1.168c-.613-1.145-1.715-1.961-2.414-3.07-.337-.499-.923-2.268-.396-2.76" style="fill:#e98b6f"/><path d="M1306.988 464.023a4.906 4.906 0 0 1-5.148 4.645 4.896 4.896 0 0 1-4.637-5.145 4.896 4.896 0 0 1 5.141-4.648 4.904 4.904 0 0 1 4.644 5.148" style="fill:#fff"/><path d="M1416.031 592.703s29.746 41.199 34.934 62.426c3.406 13.949-20.914 45.371-40.547 50.91-10.73 3.027-10.984-110.562 5.613-113.336" style="fill:#4fa6c9"/><path d="M1416.031 592.703s29.746 41.199 34.934 62.426c3.406 13.949-20.914 45.371-40.547 50.91-10.73 3.027-10.984-110.562 5.613-113.336" style="fill:#24365f"/><path d="m1385.965 555.164 16.914 2.254s27.094 55.336 33.813 113.59c-7.188 47.809-22.512 119.852-40 125.023-59.266 17.531-121.141-10.027-121.141-10.027l-28.344-113.176c76.137-29.637 37.656-116.656 37.656-116.656l15.988-3.832c.001 0 52.258 46.969 85.114 2.824" style="fill:#24365f"/><path d="M1280.145 1712.496c22.531 5.234 44.797-.805 44.797-.805l-22.801-15.301s-23.789-32.711-27.922-44.008c-2.652-7.242-2.148-30.211-2.148-30.211h-29.305l-1.039 16.355-12.105 24.211s-1.688 11.668 19.406 15.289c-.001.001 13.949 17.595 31.117 34.47" style="fill:#f7a483"/><path d="M1302.141 1696.391c-8.074 3.207-21.977 3.352-28.727-4.305-27.191-30.852-31.688-53.559-31.688-53.559-15.605 15.223-12.527 28.891-12.527 28.891l.75 5.617 5.809 43.285h3.016l10.402-34.863 18.359 33.992c48.152 9.254 60.508-3.219 60.508-3.219z" style="fill:#c93232"/><path d="m1235.547 1287.375 64.004 18.949s-24.637 301.25-27.48 315.848c0 0-29.383 8.305-29.305 0 .156-20.047-25.66-143.219-27.922-174.617-3.883-53.961-18.547-90.153 20.703-160.18M1292.719 599.418c1.516 24.367-11.223 48.301-35.602 49.801-24.371 1.52-87.754-9.625-72.555-28.746 29.852-37.586 47.934-56.449 72.305-57.957 24.383-1.52 34.352 12.523 35.852 36.902" style="fill:#f7a483"/><path d="m1274.133 634.859-15.508-41.816-45.395-6.106s-109.953 96.906-124.684 127.758c-15.691 32.875 13.418 23.207 25.484 20.676.001 0 145.505-76.074 160.103-100.512" style="fill:#f7a483"/><path d="M1086.043 735.852s54.785 77.063 105.805 120.965c0 0 21.988-2.188 15.02-14.184-11.848-20.363-60.602-115.731-72.578-136.172-6.747-11.488-48.247 29.391-48.247 29.391" style="fill:#f7a483"/><path d="m1206.867 842.633 12.004-.254 28.336-12.816c-.133 15.902 1.492 32.09 1.492 32.09 14.387 15.293 23.051 27.27 23.051 27.27 5.641 5.195-.637 8.082-.637 8.082-10.57-3.137-30.527-18.684-30.527-18.684 9.984 10.316 29.004 25.039 29.004 25.039 3.863 5.105-2.574 6.641-2.574 6.641-15.203-.383-32.777-22.945-32.777-22.945 6.371 8.727 24.484 23.832 24.484 23.832.789 4.555-1.773 4.285-1.773 4.285-12.098 1.547-28.949-20.215-28.949-20.215l6.516 7.984c9.91 10.133.789 11.195.789 11.195l-6.012-4.5c-18.082-14.02-24.957-31.871-24.957-31.871l-12.488-20.949z" style="fill:#f7a483"/><path d="m1380.965 377.578-39.813-43.508c47.293-16.063 75.566 31.805 75.566 31.805l-8.941 11.703s-17.043-38.656-26.812 0" style="fill:#d7b089"/><path d="M1434.66 1117.984c6.707-79.465 8.859-175.531-11.879-227.391 0 0-188.266 12.348-206.172 55.402 0 0-9.098 49.77-1.543 171.988 0 .001 131.051 31.478 219.594.001" style="fill:#24365f"/><path d="M1239.34 522.629c0 27.102 52.988 50.144 87.941 58.211-1.527-31.906-1.582-55.941-1.582-55.941-3.379-61.129-1.516-83.785 4.039-126.078 4.332-33.02 28.277-46.324 51.227-21.242-.934-1.023-1.152-4.527-1.598-5.906a52 52 0 0 0-2.473-6.191c-8.023-16.859-24.359-28.828-42.066-33.934-6.355-1.832-12.551-2.379-19.098-1.664-21.84 2.375-48.844 17.75-59.805 36.887-10.742 18.766-13.152 42.41-14.898 63.57-.988 11.98-1.793 24.219-1.566 36.238 0 .007.422 22.862-.121 56.05" style="fill:#ddbe90"/><path d="M1062.172 362.227s25.918 23.902 23.141 101.543v234.906s1.531 24.059 21.469 39.984c0 0-170.32 50.035-184.848-26.332V468.672s-7.91-102.523 31.57-120.938c0 0 69.855-28.796 108.668 14.493" style="fill:#370900"/><path d="M1081.145 563.637c35.273 16.875 16.414 56.746 16.414 56.746L1051.7 787.285s-42.852 17.516-118.039 8.746c-10.441-14.945-31.906-77.558-39.094-125.367-5.922-39.375-24.316-78.172-4.277-100.129 7.676-8.414 66.191-16.817 66.484-18.195l69.074-.277z" style="fill:#f7a483"/><path d="M1030.301 988.891s-22.293 184.633-93.57 289.266c0 0-33.234 55.859-73.734 13.367 0 0-6.492-300.66 44.207-393.66-.001-.001 144.878-7.153 123.097 91.027M925.672 557.418c-24.402-.68-56.836 23.422-57.516 47.836-.68 24.41 12.625 87.383 31.215 71.547 36.547-31.117 54.777-49.844 55.461-74.25.684-24.414-4.75-44.453-29.16-45.133" style="fill:#e59375"/><path d="m880.949 594.856 44.555-1.961 23.254 39.469s-46.582 138.965-69.293 164.516c-24.195 27.227-26.59-3.344-28.949-15.449 0-.001 13.586-163.63 30.433-186.575M882.785 1706.844c-22.805 3.887-44.68-3.461-44.68-3.461l23.668-13.926s25.688-31.238 30.484-42.281c3.074-7.066 3.941-30.023 3.941-30.023l29.246 1.734.066 16.387 10.652 24.895s.984 11.738-20.277 14.102c.002-.001-14.963 16.741-33.1 32.573" style="fill:#e59375"/><path d="M861.773 1689.457c7.871 3.68 21.746 4.648 28.934-2.598 28.981-29.18 34.805-51.586 34.805-51.586 14.68 16.125 10.797 29.586 10.797 29.586l-1.086 5.563-8.359 42.863-3.012-.176-8.324-35.418-20.336 32.844c-48.617 6.379-60.215-6.801-60.215-6.801z" style="fill:#09111c"/><path d="M862.996 1291.523s30 311.105 33.203 325.629c0 0 29.535 10.031 29.246 1.734-.652-20.039 28.473-148.234 30.379-179.656 3.051-50.453-5.164-84.035-31.406-151.855 0 0-48.289-33.48-61.422 4.148" style="fill:#e59375"/><path d="M962.359 785.121c-5.598-1.016-28.699 10.91-28.699 10.91s-28.852 92.711-30.086 106.813c-1.246 14.09 95.711 87.07 204.02 45.516 0 0-50.148-130.563-53.219-162.715-3.062-32.157-92.016-.524-92.016-.524" style="fill:#e79675"/><path d="M933.66 796.031s-27.656 83.613-30.086 106.813c-8.633 82.141 102.512 116.586 210.816 75.031 0 0 7.023-112.926-60.016-192.231.001 0-17.804 16.243-120.714 10.387" style="fill:#101b26"/><path d="m1036.066 1038.813 78.324-43s-12.703 247.82-22.629 317.426c0 0-43.824 12.199-57.395 3.184-40.625-95.297-64.156-302.215-64.156-302.215z" style="fill:#f7a483"/><path d="M1083.52 923.293s37.586 10.848 29.813 80.492c-7.602 68.023-132.699 74.48-144.379 4.738-12.571-75.042 48.312-114.812 114.566-85.23M1030.695 557.418h-75.387c3.426-10.981 10.527-39.391-.457-58.727l76.16-50.012c.001.001-13.534 83.927-.316 108.739" style="fill:#f7a483"/><path d="M960.723 524.457c.211-8.406-1.176-17.492-5.871-25.766l76.16-50.012s-5.516 34.199-6.078 65.398c-27.504 8.743-38.821 12.13-64.211 10.38" style="fill:#e1876f"/><path d="m943.133 505.535-4.566-11.121-11.453-32.816c-1.613-5.223-2.613-12.422-1.063-17.68 1.859-6.32 3.039-16.527.141-27.727-7.746-29.996 4.906-46.508 4.906-46.508 16.285-28.773 58.043-30.762 58.043-30.762 51.766.059 58.52 49.836 58.52 49.836 9.984 32.844-15.129 61.797-15.18 61.848-3.18 3.664-3.254 9.352-4.648 13.754-1.496 4.707-3.895 9.145-6.938 13.016-6.832 8.695-15.898 17.145-25.383 22.594-8.988 5.172-26.625 10.898-39.324 11.41-5.266.211-10.438.535-13.055-5.844" style="fill:#f7a483"/><path d="M1027.684 470.176c-.93-23.59-1.453-22.113-1.453-22.113-.902-6.867-13.66 8.676-13.84-.313-.809-41.145-16.73-59.938-22.723-62.805-16.289-7.762-33.129-9.387-46.266-6.359-20.59 4.746-18.391 32.359-18.391 32.359-22.844-100.34 91.707-73.727 91.707-73.727 55.723 11.645 52.687 63.754 52.687 63.754 9.566 55.297-43.59 90.121-43.59 90.121z" style="fill:#370900"/><path d="M1023.664 462.336c1.918 1.324 4.328 2.023 7.281 1.813 7.988-.516 14.246-8.34 13.969-17.449-.277-9.094-6.961-16.059-14.941-15.539-3.789.254-7.176 2.141-9.672 5.027-3.641 4.211-3.379 11.629-2.219 16.684.926 4.042 2.711 7.472 5.582 9.464" style="fill:#f8a07d"/><path d="M1027.172 439.797c.223-4.805 10.129-.73 8.797 2.035-.766 1.594-2.406 2.816-3.672 3.965-1.754 1.578-2.578 2.984-2.707 5.375-.023.266-.039 1.105.258 1.281 1.293.805 5.156-4.066 6.004-5.098 1.668-2.027 1.742-5.34.762-7.695-1.023-2.496-2.758-3.613-5.469-3.305-2.172.234-4.375.496-4.113 3.188.011.051.124.496.14.254" style="fill:#e98b6f"/><path d="M1030.52 444.594c-1.066-.949-1.984-.066-2.969.723-.918.75-1.395 1.766-1.59 2.898-.422 2.516.082 5.824 1.613 7.918 1.234 1.688 3.223 2.66 5.32 2.492 2.914-.227 3.645-2.844 3.625-5.313 0-.648-.027-2.219-.688-2.594-.723-.406-1.164.703-1.602 1.191-.617.645-1.563.938-2.422 1.055-1.652.223-3.32-.535-4.418-1.711-.191-.207-.383-.461-.48-.727.078 1.613.184 1.961.305 1.066.105-.414.277-.801.496-1.168.609-1.145 1.715-1.961 2.414-3.07.337-.499.923-2.268.396-2.76" style="fill:#e98b6f"/><path d="M1023.367 464.023a4.906 4.906 0 0 0 5.148 4.645 4.896 4.896 0 0 0 4.637-5.145 4.9 4.9 0 0 0-5.141-4.648 4.905 4.905 0 0 0-4.644 5.148" style="fill:#fff"/><path d="m944.391 555.164-14.66 2.254s-28.445 54.992-35.164 113.246c7.188 47.809 21.609 120.195 39.094 125.367 59.27 17.531 121.145-10.027 121.145-10.027l28.344-113.176c-76.137-29.637-37.656-116.656-37.656-116.656l-15.988-3.832c-.002 0-56.553 41.469-85.115 2.824" style="fill:#00b9c5"/><path d="M914.32 592.703s-29.742 41.199-34.93 62.426c-3.41 13.949 20.914 45.371 40.547 50.91 10.731 3.027 10.981-110.562-5.617-113.336" style="fill:#00b9c5"/><path d="M1050.211 1712.496c-22.535 5.234-44.801-.805-44.801-.805l22.805-15.301s23.789-32.711 27.922-44.008c2.648-7.242 2.145-30.211 2.145-30.211h29.309l1.039 16.355 12.105 24.211s1.684 11.668-19.406 15.289c-.001.001-13.95 17.595-31.118 34.47" style="fill:#f7a483"/><path d="M1028.215 1696.391c8.07 3.207 21.973 3.352 28.727-4.305 27.191-30.852 31.688-53.559 31.688-53.559 15.605 15.223 12.523 28.891 12.523 28.891l-.75 5.617-5.805 43.285h-3.016l-10.406-34.863-18.355 33.992c-48.152 9.254-60.512-3.219-60.512-3.219z" style="fill:#09111c"/><path d="m1094.809 1287.375-64.004 18.949s24.637 301.25 27.477 315.848c0 0 29.383 8.305 29.309 0-.16-20.047 25.66-143.219 27.922-174.617 3.882-53.961 18.546-90.153-20.704-160.18" style="fill:#f7a483"/><path d="m1113.23 945.996 12.641 297.887s-162.266 37.555-274.934-13.949c0 0 10.301-254.832 56.121-339.34.001 0 196.985-18.227 206.172 55.402" style="fill:#101b26"/><path d="M1039.176 581.082c-13.766 20.16-6.016 39.719 5.121 61.004 11.32 21.637 80.332 36.606 77.051 12.406-6.434-47.57-11.301-74.656-32.492-86.789-17.973-10.285-35.926-6.797-49.68 13.379" style="fill:#f7a483"/><path d="m1037.02 621.043 34.711-28 42.133 17.969s44.93 139.504 41.809 173.551c-3.332 36.273-23.395 13.078-32.477 4.738-.001 0-86.13-139.789-86.176-168.258" style="fill:#f7a483"/><path d="M1154.852 781.797s5.477 98.191-9.527 163.813c0 0-18.996 11.285-20.504-2.504-2.555-23.426-22.223-138.793-17.227-179.703 1.617-13.219 47.258 18.394 47.258 18.394" style="fill:#f7a483"/><path d="M1136.473 1025.957s-5.109 2.504-1.66-9.488l4.047-18.711s-4.059 31.172-14.719 37.098c0 0-1.902 1.742-3.965-2.391 0 0 9.031-26.559 8.977-37.359 0 0-2.348 32.48-14.355 41.816 0 0-6.09 2.586-6.008-3.816 0 0 9.227-22.988 10.07-41.27 0 0-7.172 31.742-13.816 40.539 0 0-6.766 1.406-5.309-6.129 0 0 5.16-19.019 9.09-40.926 0 0-12.398 10.492-21.84 5.59l28.02-40.891 9.816-6.914 20.504 2.504 2.391 24.27s1.449 25.414-6.086 49.266c-.001 0-1.985 6.054-5.157 6.812" style="fill:#f7a483"/><path d="m908.082 697.684 60.848 133.918-123.879-11.43-55.848-131.434z" style="fill:#d2e7f2"/><path d="M808.828 730.207c2.356 4.336 4.883 8.266 8.68 11.277 4.316 3.418 11.543 2.383 14.324 4.879 4.848 4.352 1.41 16.102-8.82 27.891-8.867 10.227-15.406-3.156-18.394-11.395-4.41-12.164-4.121-17.594.91-27.41z" style="fill:#e59375"/></svg>