<svg xmlns="http://www.w3.org/2000/svg" xmlns:xlink="http://www.w3.org/1999/xlink" xml:space="preserve" viewBox="0 0 750 500"><path d="M0 0h750v500H0z" style="fill:#fff"/><path d="M701.436 245.513c-22.877-84.303-76.927-45.554-80.175 28.414C618.135 345.139 549.556 75.681 395.176 0H207.144c-69.797 58.59-60.247 201.361-11.417 294.972 73.296 140.516 10.892 103.263-46.671 39.231S-64.633 363.788 89.47 485.115h562.928s71.915-155.299 49.038-239.602" style="fill:#d1edf0"/><path d="M554.68 44.918c-46.793 2.087 5.542 132.965 52.617 119.58s-9.3-121.512-52.617-119.58" style="fill:#d1edf0"/><path d="M562.601 238.595c0 3.518-.099 7.011-.311 10.467-5.408 91.134-81.028 163.361-173.517 163.361-92.315 0-167.811-71.94-173.492-162.826a179 179 0 0 1-.336-11.002c0-96.008 77.82-173.828 173.828-173.828s173.828 77.821 173.828 173.828" style="fill:#f16560;stroke:#231f20;stroke-width:1.3082;stroke-linecap:round;stroke-linejoin:round;stroke-miterlimit:10"/><path d="M562.291 249.062c-5.408 91.134-81.028 163.361-173.517 163.361-92.315 0-167.811-71.94-173.492-162.826 2.35-1.069 3.779-1.678 3.779-1.678s53.89-109.806 119.739 3.444c49.589 85.316 78.666 43.174 108.352-33.59 29.674-76.764 62.94-44.989 69.019 21.519 4.462 48.83 31.873 25.583 46.12 9.77" style="opacity:.3;fill:#326c92"/><path d="M323.863 197.041c-18.39-1.152 21.447 32.912 41.763 59.294s32.064-54.67-41.763-59.294M473.1 283.452c-22.237-10.387-43.953 32.84-24.049 45.685 19.905 12.846 39.795-38.33 24.049-45.685" style="fill:#fff"/><path d="M388.773 56.476c-100.582 0-182.12 81.537-182.12 182.12 0 100.582 81.538 182.12 182.12 182.12s182.12-81.537 182.12-182.12-81.537-182.12-182.12-182.12m0 341.862c-88.225 0-159.743-71.518-159.743-159.743S300.548 78.852 388.773 78.852s159.743 71.518 159.743 159.743-71.517 159.743-159.743 159.743" style="fill:#fff"/><path d="M123.461 81.985c0-2.45-.356-4.821-1.001-7.074l9.827-7.298-4.993-8.642-11.21 4.861a26 26 0 0 0-12.278-7.074l-1.396-12.159h-9.999l-1.396 12.159a26 26 0 0 0-12.277 7.074l-11.211-4.861-5.006 8.642 9.84 7.298a25.7 25.7 0 0 0-1.001 7.074c0 2.463.356 4.835 1.001 7.087l-9.84 7.285 5.006 8.655 11.211-4.861a26 26 0 0 0 12.277 7.074l1.396 12.159h9.999l1.396-12.159a26 26 0 0 0 12.278-7.074l11.21 4.861 4.993-8.655-9.827-7.285a25.7 25.7 0 0 0 1.001-7.087M97.404 95.672c-7.548 0-13.674-6.125-13.674-13.687 0-7.548 6.126-13.674 13.674-13.674 7.562 0 13.687 6.126 13.687 13.674 0 7.562-6.126 13.687-13.687 13.687" style="fill:#d5de24;stroke:#231f20;stroke-width:1.3863;stroke-linecap:round;stroke-linejoin:round;stroke-miterlimit:10"/><path d="M180.654 95.667c0-1.895-.275-3.728-.774-5.47l7.599-5.643-3.861-6.683-8.669 3.759a20.1 20.1 0 0 0-9.494-5.47l-1.08-9.402h-7.732l-1.08 9.402a20.1 20.1 0 0 0-9.494 5.47l-8.669-3.759-3.871 6.683 7.609 5.643a19.8 19.8 0 0 0-.774 5.47c0 1.905.275 3.739.774 5.48l-7.609 5.633 3.871 6.693 8.669-3.759a20.1 20.1 0 0 0 9.494 5.47l1.08 9.402h7.732l1.08-9.402a20.1 20.1 0 0 0 9.494-5.47l8.669 3.759 3.861-6.693-7.599-5.633c.499-1.742.774-3.575.774-5.48m-20.149 10.584c-5.837 0-10.574-4.737-10.574-10.584 0-5.837 4.737-10.574 10.574-10.574 5.847 0 10.584 4.737 10.584 10.574 0 5.847-4.737 10.584-10.584 10.584" style="fill:#f37a66;stroke:#231f20;stroke-width:1.3863;stroke-linecap:round;stroke-linejoin:round;stroke-miterlimit:10"/><path d="M683.322 199.758c0-1.895-.275-3.728-.774-5.47l7.599-5.643-3.861-6.683-8.669 3.759a20.1 20.1 0 0 0-9.494-5.47l-1.08-9.402h-7.732l-1.08 9.402a20.1 20.1 0 0 0-9.494 5.47l-8.669-3.759-3.871 6.683 7.609 5.643a19.8 19.8 0 0 0-.774 5.47c0 1.905.275 3.738.774 5.48l-7.609 5.633 3.871 6.693 8.669-3.759a20.1 20.1 0 0 0 9.494 5.47l1.08 9.402h7.732l1.08-9.402a20.1 20.1 0 0 0 9.494-5.47l8.669 3.759 3.861-6.693-7.599-5.633c.499-1.742.774-3.576.774-5.48m-20.149 10.583c-5.837 0-10.574-4.737-10.574-10.584 0-5.837 4.737-10.574 10.574-10.574 5.847 0 10.584 4.737 10.584 10.574 0 5.848-4.737 10.584-10.584 10.584" style="fill:#01928c;stroke:#231f20;stroke-width:1.3863;stroke-linecap:round;stroke-linejoin:round;stroke-miterlimit:10"/><path d="M565.715 107.489h137.54s-2.96-27.893-12.136-34.792-16.377 17.728-27.33 18.586-6.809-51.239-28.813-54.495-28.811 49.433-37.1 52.097c-8.288 2.664-12.728-15.44-22.792-14.676-10.063.764-9.369 33.28-9.369 33.28M33.293 235.958h102.354s-5.269-21.516-16.247-27.225c-10.978-5.708-13.613 14.052-26.786 10.978s-12.44-42.155-32.347-43.472-26.974 59.719-26.974 59.719" style="fill:#378aca;stroke:#231f20;stroke-width:1.3863;stroke-linecap:round;stroke-linejoin:round;stroke-miterlimit:10"/><path d="M239.977 0v82.32" style="fill:none;stroke:#231f20;stroke-width:1.651;stroke-miterlimit:10"/><circle cx="239.977" cy="94.448" r="13.56" style="fill:#faac26;stroke:#231f20;stroke-width:1.3863;stroke-linecap:round;stroke-linejoin:round;stroke-miterlimit:10" transform="rotate(-80.781 239.98 94.444)"/><path d="M305.744 0v47.201" style="fill:none;stroke:#231f20;stroke-width:1.651;stroke-miterlimit:10"/><circle cx="305.744" cy="51.829" r="13.56" style="fill:#d5de24;stroke:#231f20;stroke-width:1.3863;stroke-linecap:round;stroke-linejoin:round;stroke-miterlimit:10" transform="rotate(-76.714 305.767 51.824)"/><path d="M533.273 24.567V82.32" style="fill:none;stroke:#231f20;stroke-width:1.651;stroke-miterlimit:10"/><circle cx="533.273" cy="94.448" r="13.56" style="fill:#faac26;stroke:#231f20;stroke-width:1.3863;stroke-linecap:round;stroke-linejoin:round;stroke-miterlimit:10" transform="rotate(-9.213 533.225 94.392)"/><path d="m97.855 253.107 3.804 12.539a6.86 6.86 0 0 0 4.573 4.573l12.539 3.804-12.539 3.803a6.86 6.86 0 0 0-4.573 4.573l-3.804 12.539-3.804-12.538a6.86 6.86 0 0 0-4.573-4.573l-12.539-3.803 12.539-3.804a6.86 6.86 0 0 0 4.573-4.573z" style="fill:#e93e4d;stroke:#231f20;stroke-width:1.3863;stroke-linecap:round;stroke-linejoin:round;stroke-miterlimit:10"/><path d="m645.709 310.607 2.042 6.732a3.68 3.68 0 0 0 2.455 2.455l6.732 2.042-6.732 2.042a3.68 3.68 0 0 0-2.455 2.455l-2.042 6.732-2.042-6.732a3.68 3.68 0 0 0-2.455-2.455l-6.732-2.042 6.732-2.042a3.68 3.68 0 0 0 2.455-2.455zM128.947 156.793l2.042 6.732a3.68 3.68 0 0 0 2.455 2.455l6.732 2.042-6.732 2.042a3.68 3.68 0 0 0-2.455 2.455l-2.042 6.732-2.042-6.732a3.68 3.68 0 0 0-2.455-2.455l-6.732-2.042 6.732-2.042a3.68 3.68 0 0 0 2.455-2.455z" style="fill:#faac26;stroke:#231f20;stroke-width:1.3863;stroke-linecap:round;stroke-linejoin:round;stroke-miterlimit:10"/><path d="m608.268 181.346 3.349 11.04a6.04 6.04 0 0 0 4.027 4.027l11.04 3.349-11.04 3.349a6.04 6.04 0 0 0-4.027 4.027l-3.349 11.04-3.349-11.04a6.04 6.04 0 0 0-4.027-4.027l-11.04-3.349 11.04-3.349a6.04 6.04 0 0 0 4.027-4.027z" style="fill:#e93e4d;stroke:#231f20;stroke-width:1.3863;stroke-linecap:round;stroke-linejoin:round;stroke-miterlimit:10"/><path d="M84.47 385.811h20.199v99.239H84.47z" style="fill:#378aca;stroke:#231f20;stroke-width:1.3863;stroke-linecap:round;stroke-linejoin:round;stroke-miterlimit:10"/><path d="M116.086 400.009h20.199v85.041h-20.199z" style="fill:#d5de24;stroke:#231f20;stroke-width:1.3863;stroke-linecap:round;stroke-linejoin:round;stroke-miterlimit:10"/><path d="M147.702 414.207h20.199v70.843h-20.199z" style="fill:#f05730;stroke:#231f20;stroke-width:1.3863;stroke-linecap:round;stroke-linejoin:round;stroke-miterlimit:10"/><path d="M179.318 428.405h20.199v56.645h-20.199z" style="fill:#f49193;stroke:#231f20;stroke-width:1.3863;stroke-linecap:round;stroke-linejoin:round;stroke-miterlimit:10"/><path d="M566.106 472.057h34.312v12.993h-34.312z" style="fill:#378aca;stroke:#231f20;stroke-width:1.3863;stroke-linecap:round;stroke-linejoin:round;stroke-miterlimit:10"/><path d="M619.811 445.957h34.312v39.093h-34.312z" style="fill:#d5de24;stroke:#231f20;stroke-width:1.3863;stroke-linecap:round;stroke-linejoin:round;stroke-miterlimit:10"/><path d="M673.517 459.064h34.312v25.986h-34.312z" style="fill:#f05730;stroke:#231f20;stroke-width:1.3863;stroke-linecap:round;stroke-linejoin:round;stroke-miterlimit:10"/><path d="M15 485.115h717.5" style="fill:#fff;stroke:#231f20;stroke-width:1.2563;stroke-miterlimit:10"/><path d="M283.99 425.249s17.49 23.713 23.4 59.866" style="fill:none;stroke:#231f20;stroke-width:1.3863;stroke-linecap:round;stroke-linejoin:round;stroke-miterlimit:10"/><path d="M302.782 465.325c-.46.105.638-14.864 16.281-20.792.001.001 1.524 16.719-16.281 20.792" style="fill:#01928c;stroke:#231f20;stroke-width:1.3863;stroke-linecap:round;stroke-linejoin:round;stroke-miterlimit:10"/><path d="M302.782 465.325c.434-.184-9.231-11.667-25.379-7.298 0 0 8.567 14.437 25.379 7.298" style="fill:#01928c;stroke:#231f20;stroke-width:1.3863;stroke-linecap:round;stroke-linejoin:round;stroke-miterlimit:10"/><path d="M301.128 425.248c0 4.966-2.108 9.445-5.493 12.581a16.7 16.7 0 0 1-2.74 2.055c0 .013-.013.013-.013.013a17 17 0 0 1-8.892 2.49 17.1 17.1 0 0 1-9.999-3.214c-.355-.263-.711-.54-1.054-.817a17.1 17.1 0 0 1-6.086-13.108c0-9.472 7.667-17.138 17.138-17.138h.026c.5 0 .988.026 1.475.079 7.561.646 13.7 6.192 15.255 13.45.092.421.172.856.224 1.304.106.75.159 1.528.159 2.305" style="fill:#f16560"/><path d="M300.97 422.943a14 14 0 0 0-.224-1.304c-.816.066-1.62.171-2.424.29-.448-1.449-1.159-2.779-2.2-3.873-1.963-2.055-4.993-3.28-9.155-3.267-.342 0-.685.013-1.041.026.184-.988.277-1.897.277-2.74 0-1.515-.277-2.806-.711-3.886a14 14 0 0 0-1.475-.079c.514 1.028.856 2.319.869 3.965 0 .843-.105 1.792-.316 2.832-.092.013-.171.013-.263.026-5.678.606-9.537 2.029-12.027 3.82-2.477 1.792-3.583 3.992-3.583 6.007 0 1.489.593 2.858 1.581 3.833.975.988 2.358 1.594 3.899 1.594 2.793 0 5.981-1.95 8.523-6.758 1.488-2.779 2.411-5.177 2.938-7.285.461-.026.909-.04 1.331-.04 3.926 0 6.534 1.12 8.194 2.859.856.896 1.462 1.976 1.858 3.201-6.244 1.225-11.922 4.15-16.375 7.667-2.951 2.332-5.375 4.927-7.074 7.496a21 21 0 0 0-.633 1.028c.343.277.699.553 1.054.817.211-.369.435-.751.685-1.12 2.398-3.636 6.442-7.456 11.448-10.341 3.372-1.95 7.179-3.465 11.224-4.255.145.803.237 1.66.237 2.542 0 4.347-1.805 9.511-4.69 13.885a16.7 16.7 0 0 0 2.74-2.055c2.029-3.86 3.267-8.049 3.267-11.83 0-.948-.092-1.884-.263-2.779a33 33 0 0 1 2.329-.276m-19.43-.119c-2.424 4.545-5.23 6.047-7.364 6.047-2.384 0-4.15-1.844-4.163-4.11 0-1.528.817-3.32 3.043-4.94 2.187-1.581 5.783-2.951 11.197-3.557-.514 1.883-1.37 4.044-2.713 6.56" style="fill:#fff"/><path d="M301.128 425.248c0 4.966-2.108 9.445-5.493 12.581a16.7 16.7 0 0 1-2.74 2.055c0 .013-.013.013-.013.013a17 17 0 0 1-8.892 2.49 17.1 17.1 0 0 1-9.999-3.214c-.355-.263-.711-.54-1.054-.817a17.1 17.1 0 0 1-6.086-13.108c0-9.472 7.667-17.138 17.138-17.138h.026c.5 0 .988.026 1.475.079 7.561.646 13.7 6.192 15.255 13.45.092.421.172.856.224 1.304.106.75.159 1.528.159 2.305M334.588 438.271s13.686 18.555 18.31 46.844" style="fill:none;stroke:#231f20;stroke-width:1.3863;stroke-linecap:round;stroke-linejoin:round;stroke-miterlimit:10"/><path d="M349.293 469.63c-.36.082.499-11.63 12.74-16.269 0 0 1.191 13.082-12.74 16.269" style="fill:#01928c;stroke:#231f20;stroke-width:1.3863;stroke-linecap:round;stroke-linejoin:round;stroke-miterlimit:10"/><path d="M349.293 469.63c.34-.144-7.223-9.129-19.859-5.711 0 0 6.704 11.297 19.859 5.711" style="fill:#01928c;stroke:#231f20;stroke-width:1.3863;stroke-linecap:round;stroke-linejoin:round;stroke-miterlimit:10"/><path d="M347.998 438.27c0 3.886-1.649 7.391-4.298 9.844a13 13 0 0 1-2.144 1.608c0 .01-.01.01-.01.01a13.3 13.3 0 0 1-6.958 1.948 13.37 13.37 0 0 1-7.824-2.515 26 26 0 0 1-.825-.639 13.38 13.38 0 0 1-4.762-10.256c0-7.411 5.999-13.41 13.41-13.41h.021c.392 0 .773.021 1.155.062 5.916.505 10.72 4.845 11.936 10.524.072.33.134.67.175 1.021.083.587.124 1.195.124 1.803" style="fill:#f16560"/><path d="M347.875 436.466c-.041-.35-.103-.691-.175-1.021-.639.052-1.268.134-1.897.227-.35-1.134-.907-2.175-1.721-3.031-1.536-1.608-3.907-2.567-7.164-2.556-.268 0-.536.01-.814.021.144-.773.216-1.484.216-2.144 0-1.185-.216-2.195-.556-3.041a11 11 0 0 0-1.155-.062c.402.804.67 1.814.68 3.103 0 .66-.082 1.402-.247 2.216-.072.01-.134.01-.206.021-4.443.474-7.463 1.587-9.411 2.989-1.938 1.402-2.803 3.123-2.803 4.7 0 1.165.464 2.237 1.237 3 .763.773 1.845 1.247 3.051 1.247 2.185 0 4.68-1.526 6.669-5.288 1.165-2.175 1.886-4.051 2.299-5.7a18 18 0 0 1 1.041-.031c3.072 0 5.113.876 6.411 2.237.67.701 1.144 1.546 1.454 2.505-4.886.958-9.329 3.247-12.813 5.999-2.309 1.824-4.206 3.855-5.535 5.865q-.262.402-.495.804c.268.216.547.433.825.639.165-.289.34-.587.536-.876 1.876-2.845 5.041-5.834 8.958-8.092 2.639-1.526 5.618-2.711 8.782-3.329.113.629.185 1.299.185 1.989 0 3.402-1.412 7.442-3.67 10.865.773-.464 1.484-1 2.144-1.608 1.587-3.02 2.556-6.298 2.556-9.256 0-.742-.072-1.474-.206-2.175a26 26 0 0 1 1.824-.217m-15.204-.092c-1.897 3.556-4.092 4.731-5.762 4.731-1.866 0-3.247-1.443-3.257-3.216 0-1.196.639-2.598 2.381-3.865 1.711-1.237 4.525-2.309 8.762-2.783-.403 1.473-1.073 3.164-2.124 5.133" style="fill:#fff"/><path d="M347.998 438.27c0 3.886-1.649 7.391-4.298 9.844a13 13 0 0 1-2.144 1.608c0 .01-.01.01-.01.01a13.3 13.3 0 0 1-6.958 1.948 13.37 13.37 0 0 1-7.824-2.515 26 26 0 0 1-.825-.639 13.38 13.38 0 0 1-4.762-10.256c0-7.411 5.999-13.41 13.41-13.41h.021c.392 0 .773.021 1.155.062 5.916.505 10.72 4.845 11.936 10.524.072.33.134.67.175 1.021.083.587.124 1.195.124 1.803" style="fill:none;stroke:#231f20;stroke-width:1.3863;stroke-linecap:round;stroke-linejoin:round;stroke-miterlimit:10"/><path d="M418.96 430.604s-15.944 21.616-21.331 54.572" style="fill:none;stroke:#231f20;stroke-width:1.2637;stroke-linecap:round;stroke-linejoin:round;stroke-miterlimit:10"/><path d="M401.829 467.137c.419.096-.582-13.549-14.842-18.953 0-.001-1.388 15.24 14.842 18.953" style="fill:#01928c;stroke:#231f20;stroke-width:1.2637;stroke-linecap:round;stroke-linejoin:round;stroke-miterlimit:10"/><path d="M401.829 467.137c-.396-.168 8.415-10.636 23.135-6.653 0-.001-7.81 13.16-23.135 6.653" style="fill:#01928c;stroke:#231f20;stroke-width:1.2637;stroke-linecap:round;stroke-linejoin:round;stroke-miterlimit:10"/><path d="M403.337 430.603c0 4.527 1.921 8.61 5.007 11.468a15.2 15.2 0 0 0 2.498 1.873c0 .012.012.012.012.012a15.5 15.5 0 0 0 8.106 2.27c3.41 0 6.557-1.093 9.115-2.93.324-.24.648-.492.961-.744a15.6 15.6 0 0 0 5.548-11.949c0-8.634-6.989-15.623-15.623-15.623h-.024c-.456 0-.901.024-1.345.072-6.893.588-12.489 5.644-13.906 12.261-.084.384-.156.781-.204 1.189a15 15 0 0 0-.145 2.101" style="fill:#f16560"/><path d="M405.606 428.754c-.156.816-.24 1.669-.24 2.534 0 3.446 1.129 7.265 2.978 10.783a15.2 15.2 0 0 0 2.498 1.873c-2.63-3.987-4.275-8.694-4.275-12.657 0-.805.084-1.585.216-2.318 3.687.721 7.157 2.102 10.231 3.879 4.563 2.63 8.25 6.112 10.436 9.427.228.336.432.685.625 1.021.324-.24.648-.492.961-.744q-.27-.469-.577-.937c-1.549-2.342-3.759-4.707-6.448-6.833-4.059-3.206-9.234-5.872-14.927-6.989.36-1.117.913-2.102 1.693-2.918 1.513-1.585 3.891-2.606 7.469-2.606.384 0 .792.012 1.213.036.48 1.922 1.321 4.107 2.678 6.641 2.318 4.383 5.224 6.16 7.77 6.16 1.405 0 2.666-.553 3.554-1.453a4.9 4.9 0 0 0 1.441-3.494c0-1.837-1.008-3.843-3.266-5.476-2.27-1.633-5.788-2.93-10.964-3.482-.084-.012-.156-.012-.24-.024-.192-.949-.288-1.813-.288-2.582.012-1.501.324-2.678.792-3.615-.456 0-.901.024-1.345.072-.396.985-.648 2.162-.648 3.543 0 .768.084 1.597.252 2.498-.324-.012-.637-.024-.949-.024-3.795-.012-6.557 1.105-8.346 2.978-.949.997-1.597 2.21-2.005 3.531a34 34 0 0 0-2.21-.264c-.084.384-.156.781-.204 1.189q1.08.088 2.125.251m13.114-6.341c4.935.552 8.214 1.801 10.207 3.242 2.029 1.477 2.774 3.11 2.774 4.503-.012 2.065-1.621 3.747-3.794 3.747-1.945 0-4.503-1.369-6.713-5.512-1.225-2.293-2.006-4.263-2.474-5.98" style="fill:#fff"/><path d="M403.337 430.603c0 4.527 1.921 8.61 5.007 11.468a15.2 15.2 0 0 0 2.498 1.873c0 .012.012.012.012.012a15.5 15.5 0 0 0 8.106 2.27c3.41 0 6.557-1.093 9.115-2.93.324-.24.648-.492.961-.744a15.6 15.6 0 0 0 5.548-11.949c0-8.634-6.989-15.623-15.623-15.623h-.024c-.456 0-.901.024-1.345.072-6.893.588-12.489 5.644-13.906 12.261-.084.384-.156.781-.204 1.189a15 15 0 0 0-.145 2.101M452.801 448.969s-10.578 14.342-14.153 36.207" style="fill:none;stroke:#231f20;stroke-width:1.2637;stroke-linecap:round;stroke-linejoin:round;stroke-miterlimit:10"/><path d="M441.435 473.207c.278.064-.386-8.99-9.847-12.575-.001 0-.922 10.112 9.847 12.575" style="fill:#01928c;stroke:#231f20;stroke-width:1.2637;stroke-linecap:round;stroke-linejoin:round;stroke-miterlimit:10"/><path d="M441.435 473.207c-.263-.112 5.583-7.057 15.35-4.414-.001 0-5.182 8.732-15.35 4.414" style="fill:#01928c;stroke:#231f20;stroke-width:1.2637;stroke-linecap:round;stroke-linejoin:round;stroke-miterlimit:10"/><path d="M442.435 448.968c0 3.004 1.275 5.713 3.322 7.609q.763.705 1.657 1.243c0 .008.008.008.008.008a10.3 10.3 0 0 0 5.378 1.506 10.33 10.33 0 0 0 6.684-2.438 10.34 10.34 0 0 0 3.681-7.928 10.36 10.36 0 0 0-10.366-10.365h-.016q-.453 0-.892.048c-4.573.39-8.286 3.745-9.226 8.135a8 8 0 0 0-.136.789c-.062.453-.094.923-.094 1.393" style="fill:#f16560"/><path d="M443.941 447.741a9 9 0 0 0-.159 1.681c0 2.287.749 4.82 1.976 7.155q.763.705 1.657 1.243c-1.745-2.645-2.836-5.768-2.836-8.398 0-.534.056-1.052.143-1.538 2.446.478 4.749 1.394 6.788 2.573 3.028 1.745 5.474 4.056 6.924 6.254.151.223.287.454.414.677a19 19 0 0 0 .637-.494q-.18-.31-.383-.621c-1.028-1.554-2.494-3.123-4.278-4.534-2.693-2.127-6.127-3.896-9.904-4.637.239-.741.606-1.394 1.124-1.936 1.004-1.052 2.581-1.729 4.956-1.729.255 0 .526.008.805.024.319 1.275.876 2.725 1.777 4.406 1.538 2.908 3.466 4.087 5.155 4.087.932 0 1.769-.367 2.358-.964.598-.59.956-1.418.956-2.318 0-1.219-.669-2.55-2.167-3.633-1.506-1.083-3.84-1.944-7.274-2.31-.056-.008-.104-.008-.159-.016a8.7 8.7 0 0 1-.191-1.713c.008-.996.215-1.777.526-2.398q-.453 0-.892.048c-.263.653-.43 1.434-.43 2.35q0 .763.167 1.657c-.215-.008-.422-.016-.629-.016-2.518-.008-4.35.733-5.537 1.976-.629.661-1.06 1.466-1.331 2.342a22 22 0 0 0-1.466-.175 8 8 0 0 0-.136.789q.716.06 1.409.168m8.7-4.207c3.274.366 5.45 1.195 6.772 2.151 1.346.98 1.84 2.064 1.84 2.988-.008 1.37-1.075 2.486-2.518 2.486-1.291 0-2.988-.908-4.454-3.657-.811-1.522-1.329-2.828-1.64-3.968" style="fill:#fff"/><path d="M442.435 448.968c0 3.004 1.275 5.713 3.322 7.609q.763.705 1.657 1.243c0 .008.008.008.008.008a10.3 10.3 0 0 0 5.378 1.506 10.33 10.33 0 0 0 6.684-2.438 10.34 10.34 0 0 0 3.681-7.928 10.36 10.36 0 0 0-10.366-10.365h-.016q-.453 0-.892.048c-4.573.39-8.286 3.745-9.226 8.135a8 8 0 0 0-.136.789c-.062.453-.094.923-.094 1.393" style="fill:none;stroke:#231f20;stroke-width:1.2637;stroke-linecap:round;stroke-linejoin:round;stroke-miterlimit:10"/><defs><path id="a" d="M0 0h750v500H0z"/></defs><clipPath id="b"><use xlink:href="#a" style="overflow:visible"/></clipPath><g style="clip-path:url(#b)"><path d="M551.701 221.478c-5.214-.839-10.17 1.931-12.339 6.466l-297.244-47.811c-.638-4.986-4.475-9.17-9.69-10.009-6.345-1.021-12.316 3.296-13.337 9.641s3.296 12.316 9.641 13.337c5.214.839 10.17-1.931 12.339-6.466l297.244 47.811c.638 4.986 4.475 9.17 9.69 10.009 6.345 1.021 12.316-3.296 13.337-9.641s-3.296-12.316-9.641-13.337" style="fill:#231f20;stroke:#231f20;stroke-width:1.3863;stroke-linecap:round;stroke-linejoin:round;stroke-miterlimit:10"/><path d="M393.881 183.47v5.062c0 5.305 1.313 10.495 3.577 15.292a7.7 7.7 0 0 1 .656 4.362c-.468 3.417-3.3 6.163-6.728 6.543a7.682 7.682 0 0 1-7.667-11.225c2.434-4.585 3.417-9.802 3.417-14.993v-5.463c0-8.947-3.759-17.346-9.947-23.808a18.4 18.4 0 0 1-5.028-14.655c.857-8.544 7.73-15.491 16.267-16.426 11.114-1.217 20.523 7.46 20.523 18.328 0 4.888-1.905 9.335-5.015 12.638-6.255 6.645-10.055 15.22-10.055 24.345" style="fill:#d5de24;stroke:#231f20;stroke-width:1.3863;stroke-linecap:round;stroke-linejoin:round;stroke-miterlimit:10"/><path d="m628.036 401.646-75.93-163.256c-.019-.04-.046-.073-.067-.112-.034-.064-.066-.129-.105-.19q-.034-.054-.071-.107-.055-.074-.114-.143-.061-.078-.129-.152a2 2 0 0 0-.24-.217c-.048-.039-.093-.079-.144-.115l-.106-.071c-.061-.039-.126-.071-.19-.105-.039-.021-.072-.048-.113-.067q-.02-.007-.039-.014l-.112-.045c-.07-.027-.141-.046-.214-.068-.06-.018-.118-.04-.178-.054l-.096-.018c-.073-.013-.146-.018-.22-.025-.071-.007-.141-.017-.211-.018q-.021-.002-.042-.004-.021.002-.042.004c-.07.001-.141.012-.211.018-.074.007-.147.012-.22.025q-.048.008-.096.017c-.06.013-.119.036-.178.054-.072.021-.144.04-.214.068l-.111.045q-.02.007-.04.014c-.041.019-.074.046-.113.067-.064.034-.129.066-.19.105l-.105.07q-.075.055-.144.115-.078.062-.151.129l-.087.087q-.069.075-.13.152-.06.069-.114.144-.036.051-.07.105c-.04.062-.072.126-.106.191-.021.039-.048.072-.067.112l-75.931 163.256a2.634 2.634 0 1 0 4.778 2.222l70.908-152.456 2.5 151.345a2.635 2.635 0 1 0 5.27 0l-2.5-151.344 70.907 152.455a2.636 2.636 0 0 0 3.5 1.278 2.63 2.63 0 0 0 1.278-3.497" style="fill:#01928c;stroke:#231f20;stroke-width:1.3863;stroke-linecap:round;stroke-linejoin:round;stroke-miterlimit:10"/><path d="M551.41 335.515a6.96 6.96 0 1 0 0-13.919 6.96 6.96 0 0 0 0 13.919M564.034 338.172h-1.66v.002H542.09v-.002h-1.66a6.643 6.643 0 0 0-6.643 6.643v28.145a3.321 3.321 0 0 0 6.642 0v-21.464h1.656v45.49h8.088V372.56a2.058 2.058 0 1 1 4.114 0v24.426h8.088v-45.49h1.657v21.464a3.32 3.32 0 0 0 3.321 3.321h0a3.32 3.32 0 0 0 3.322-3.321v-28.145a6.64 6.64 0 0 0-6.641-6.643" style="fill:#231f20;stroke:#231f20;stroke-width:1.3863;stroke-linecap:round;stroke-linejoin:round;stroke-miterlimit:10"/><path d="M520.416 345.607a7.909 7.909 0 1 0-.001-15.815 7.909 7.909 0 0 0 .001 15.815M534.762 348.626h-1.887v.002h-23.05v-.002h-1.887a7.55 7.55 0 0 0-7.549 7.549v31.985a3.775 3.775 0 1 0 7.549 0v-24.393h1.882v37.885h9.191v-13.947a2.339 2.339 0 1 1 4.676 0v13.947h9.191v-37.885h1.883v24.393a3.775 3.775 0 0 0 3.775 3.775h0a3.775 3.775 0 0 0 3.775-3.775v-31.985a7.547 7.547 0 0 0-7.549-7.549M602.295 384.861c-2.169.45-4.29-.948-4.756-3.117l-4.21-20.117h-1.768l8.388 40.026h-37.76l8.388-40.026h-1.768l-4.21 20.117c-.466 2.169-2.587 3.567-4.756 3.117-2.169-.466-3.567-2.587-3.117-4.756l4.917-23.46a10.09 10.09 0 0 1 9.77-8.018h19.314a10.09 10.09 0 0 1 9.769 8.018l4.917 23.46c.449 2.17-.949 4.29-3.118 4.756M581.068 345.607a7.909 7.909 0 1 0-.001-15.815 7.909 7.909 0 0 0 .001 15.815" style="fill:#d5de24;stroke:#231f20;stroke-width:1.3863;stroke-linecap:round;stroke-linejoin:round;stroke-miterlimit:10"/><path d="M636.759 396.986c5.292 0 8.523 5.913 5.572 10.306-20.35 30.29-54.6 48.802-91.594 48.802h-2.042c-36.994 0-71.245-18.513-91.585-48.804-2.95-4.393.281-10.305 5.572-10.305h174.077z" style="fill:#f16560;stroke:#231f20;stroke-width:1.3863;stroke-linecap:round;stroke-linejoin:round;stroke-miterlimit:10"/><path d="m309.595 350.795-75.931-163.256c-.019-.04-.046-.073-.067-.112-.034-.064-.066-.129-.105-.19q-.034-.054-.071-.107-.055-.074-.114-.143-.061-.078-.129-.152l-.089-.089q-.073-.068-.15-.128c-.048-.039-.093-.079-.144-.115l-.106-.071c-.061-.039-.126-.071-.19-.105-.039-.021-.072-.048-.113-.067q-.02-.007-.039-.014l-.112-.045c-.07-.027-.141-.046-.214-.068-.06-.018-.118-.04-.178-.054l-.096-.018c-.073-.013-.146-.018-.22-.025-.071-.007-.141-.017-.211-.018q-.022-.002-.042-.004-.021.002-.042.004c-.07.001-.141.012-.211.018-.074.007-.147.012-.22.025q-.048.008-.096.017c-.06.013-.119.036-.178.054-.072.021-.144.04-.214.068l-.111.045c-.013.006-.027.008-.04.014-.041.019-.074.046-.113.067-.064.034-.129.066-.19.105l-.105.07q-.075.055-.144.115-.077.062-.152.129-.045.043-.087.087-.069.074-.13.152-.06.069-.114.144l-.07.105c-.04.062-.072.126-.106.191-.02.039-.048.072-.067.112l-75.931 163.256a2.634 2.634 0 1 0 4.778 2.222l70.908-152.456v151.345a2.635 2.635 0 1 0 5.27 0V200.562l70.907 152.455a2.636 2.636 0 0 0 4.779-2.222" style="fill:#01928c;stroke:#231f20;stroke-width:1.3863;stroke-linecap:round;stroke-linejoin:round;stroke-miterlimit:10"/><path d="m308.428 298.501-19.096 79.51a3.67 3.67 0 0 1-4.424 2.711l-39.336-9.447a3.67 3.67 0 0 1-2.711-4.424l19.095-79.51a3.67 3.67 0 0 1 4.424-2.711l39.336 9.447a3.67 3.67 0 0 1 2.712 4.424" style="fill:#01928c;stroke:#231f20;stroke-width:1.3863;stroke-linecap:round;stroke-linejoin:round;stroke-miterlimit:10"/><path d="m305.246 298.345-18.819 78.361a1.355 1.355 0 0 1-1.633 1.001l-37.748-9.066a1.355 1.355 0 0 1-1.001-1.633l18.819-78.361a1.355 1.355 0 0 1 1.633-1.001l37.748 9.066a1.355 1.355 0 0 1 1.001 1.633" style="fill:#51c4ce"/><path d="M280.144 313.942c10.346 2.485 16.72 12.887 14.235 23.233s-12.887 16.72-23.233 14.235-16.72-12.887-14.235-23.233 12.887-16.72 23.233-14.235" style="fill:#fff"/><path d="m290.299 338.041-3.495-.839q-.832 2.695-1.704 4.271a36 36 0 0 1-1.545 2.587l-5.767-1.385 1.539-6.407q.873.21 1.381-.039.505-.248.772-1.354.23-.96.038-1.44-.192-.476-.776-.618-.407-.097-.794.165-.386.26-1.038 1.182a61 61 0 0 1-2.464 3.397q-1.131 1.44-2.29 2.285a5.9 5.9 0 0 1-2.492 1.079q-1.335.236-3.054-.177-1.428-.344-2.513-1.02a5.5 5.5 0 0 1-1.764-1.765q-.677-1.086-.904-2.651-.225-1.563.074-3.708l-3.349-.804.917-3.816 3.291.79a22 22 0 0 1 .857-2.351q.442-1.003.899-1.817a20 20 0 0 1 .909-1.477q.453-.662.856-1.058l5.214 1.252-1.469 6.118q-.846-.202-1.262.188c-.279.264-.471.616-.579 1.064q-.231.961-.084 1.441.146.484.757.631.496.118.836-.278.342-.394.85-1.227a50 50 0 0 1 1.931-2.911 11 11 0 0 1 2.148-2.272 6.8 6.8 0 0 1 2.615-1.267q1.439-.346 3.303.101 3.35.804 4.731 3.199 1.38 2.396.82 6.267l3.525.846z" style="fill:#51c4ce"/><path d="m329.821 307.115-39.958 71.344a3.67 3.67 0 0 1-4.994 1.408l-35.296-19.768a3.67 3.67 0 0 1-1.408-4.994l39.958-71.344a3.67 3.67 0 0 1 4.994-1.408l35.296 19.768a3.67 3.67 0 0 1 1.408 4.994" style="fill:#01928c;stroke:#231f20;stroke-width:1.3863;stroke-linecap:round;stroke-linejoin:round;stroke-miterlimit:10"/><path d="m326.8 306.1-39.38 70.312a1.355 1.355 0 0 1-1.844.52l-33.87-18.97a1.355 1.355 0 0 1-.52-1.844l39.38-70.312a1.355 1.355 0 0 1 1.844-.52l33.87 18.97c.653.366.886 1.192.52 1.844" style="fill:#51c4ce"/><circle cx="288.993" cy="331.11" r="19.267" style="fill:#fff" transform="rotate(-69.971 288.998 331.117)"/><path d="m301.641 340.25-3.136-1.757q-1.533 2.367-2.799 3.649a37 37 0 0 1-2.189 2.071l-5.175-2.898 3.22-5.749q.783.44 1.34.337.554-.1 1.11-1.094.483-.862.427-1.376-.056-.51-.579-.805-.365-.204-.809-.056-.443.145-1.32.856a61 61 0 0 1-3.294 2.601q-1.48 1.078-2.824 1.578a5.9 5.9 0 0 1-2.691.362q-1.349-.135-2.891-.999-1.28-.718-2.142-1.663a5.46 5.46 0 0 1-1.218-2.177q-.358-1.23-.15-2.797.208-1.565 1.078-3.548l-3.005-1.683 1.918-3.424 2.953 1.654q.767-1.184 1.463-2.031a20.134 20.134 0 0 1 2.633-2.679 7 7 0 0 1 1.111-.786l4.678 2.62-3.074 5.489q-.758-.424-1.266-.161-.51.265-.846.867-.484.863-.472 1.364.009.505.558.813.445.248.881-.04.437-.286 1.151-.951a49 49 0 0 1 2.649-2.277 11 11 0 0 1 2.684-1.604 6.8 6.8 0 0 1 2.861-.51q1.48.058 3.151.994 3.006 1.683 3.685 4.363c.679 2.68.149 3.872-.911 6.254l3.163 1.771z" style="fill:#51c4ce"/><path d="m348.073 321.211-57.821 57.821a3.67 3.67 0 0 1-5.189 0l-28.605-28.605a3.67 3.67 0 0 1 0-5.189l57.821-57.821a3.67 3.67 0 0 1 5.189 0l28.605 28.605a3.67 3.67 0 0 1 0 5.189" style="fill:#01928c;stroke:#231f20;stroke-width:1.3863;stroke-linecap:round;stroke-linejoin:round;stroke-miterlimit:10"/><path d="M345.44 319.415 288.456 376.4a1.354 1.354 0 0 1-1.915 0l-27.451-27.45a1.355 1.355 0 0 1 0-1.916l56.985-56.985a1.354 1.354 0 0 1 1.915 0l27.45 27.451c.53.529.53 1.386 0 1.915" style="fill:#51c4ce"/><circle cx="302.265" cy="333.225" r="19.267" style="fill:#fff"/><path d="m311.957 345.455-2.542-2.542q-2.118 1.863-3.685 2.752a36 36 0 0 1-2.669 1.399l-4.194-4.194 4.659-4.659q.634.635 1.198.688.56.053 1.365-.752.698-.699.784-1.208.085-.506-.339-.932-.296-.295-.764-.274-.465.02-1.503.465a61 61 0 0 1-3.876 1.609q-1.717.636-3.147.752a5.9 5.9 0 0 1-2.688-.382q-1.261-.497-2.511-1.746-1.037-1.038-1.61-2.182a5.5 5.5 0 0 1-.582-2.426q-.01-1.28.615-2.733.625-1.45 2-3.123l-2.436-2.436 2.775-2.775 2.393 2.393a22 22 0 0 1 1.959-1.557 21 21 0 0 1 1.716-1.08 20 20 0 0 1 1.546-.784 7 7 0 0 1 1.283-.455l3.791 3.791-4.449 4.449q-.614-.613-1.175-.499-.562.117-1.05.605-.698.699-.825 1.185-.128.488.316.933.362.36.858.2.499-.157 1.366-.603a50 50 0 0 1 3.167-1.473 11 11 0 0 1 3.018-.815 6.8 6.8 0 0 1 2.892.285q1.409.456 2.763 1.812 2.437 2.436 2.362 5.2t-2.574 5.772l2.563 2.563z" style="fill:#51c4ce"/><path d="M232.421 277.684c-8.356-7.209-15.325-14.55-11.692-24.971l.778-2.231a4.97 4.97 0 0 0-1.177-5.145l-3.411-3.411a3.297 3.297 0 0 0-4.665.003l-5.6 5.612-5.6-5.6a3.295 3.295 0 0 0-4.662 0l-5.6 5.6-5.6-5.612a3.297 3.297 0 0 0-4.665-.003l-3.411 3.411a4.97 4.97 0 0 0-1.177 5.145l.778 2.231c3.633 10.421.856 21.912-6.902 29.76-22.1 22.356-22.679 44.163-22.679 44.163s-3.444 45.778 51.588 45.778 71.299-62.289 33.697-94.73" style="fill:#f39e1e;stroke:#231f20;stroke-width:1.4206;stroke-linecap:round;stroke-linejoin:round;stroke-miterlimit:10"/><path d="M196.604 305.389v-3.683q-2.884-.183-4.664-.676-1.783-.49-2.948-.921v-6.078h6.752q-.001.92.37 1.367.368.445 1.534.445 1.012 0 1.444-.307.429-.306.43-.921-.001-.43-.355-.752-.352-.323-1.426-.752a63 63 0 0 1-3.975-1.642q-1.705-.783-2.825-1.735a6 6 0 0 1-1.671-2.225q-.555-1.273-.555-3.085.001-1.504.415-2.748a5.6 5.6 0 0 1 1.337-2.18q.92-.935 2.426-1.535 1.504-.597 3.712-.813v-3.53h4.022v3.469q1.443.092 2.548.291 1.104.2 2.026.461t1.689.552q.768.293 1.259.6v5.495H201.7q-.001-.89-.49-1.213c-.33-.215-.727-.322-1.199-.322q-1.013 0-1.456.261-.446.261-.447.906 0 .522.477.767.475.247 1.426.553 1.78.582 3.362 1.228c1.582.646 1.979.962 2.778 1.596a7 7 0 0 1 1.889 2.302q.69 1.35.689 3.315.001 3.53-2.056 5.479t-6.048 2.317v3.715h-4.021z" style="fill:#231f20"/><path d="M279.732 319.833H260.46l-.079-.079h-38.519l-.079.079H202.51l9.709-9.708h57.804z" style="fill:#fff;stroke:#231f20;stroke-width:1.3863;stroke-linecap:round;stroke-linejoin:round;stroke-miterlimit:10"/><path d="M241.121 319.754h-19.272l9.643-9.629z" style="fill:#51c4ce;stroke:#231f20;stroke-width:1.3863;stroke-linecap:round;stroke-linejoin:round;stroke-miterlimit:10"/><path d="m221.849 319.754-9.63-9.629-9.709 9.708h19.273l.079-.079z" style="fill:#51c4ce;stroke:#231f20;stroke-width:1.3863;stroke-linecap:round;stroke-linejoin:round;stroke-miterlimit:10"/><path d="m202.506 319.837 38.615 41.444v-41.444z" style="fill:#fff;stroke:#231f20;stroke-width:1.3863;stroke-linecap:round;stroke-linejoin:round;stroke-miterlimit:10"/><path d="m221.849 319.754 19.272 41.527v-41.444zM241.121 319.754h19.272l-9.642-9.629z" style="fill:#51c4ce;stroke:#231f20;stroke-width:1.3863;stroke-linecap:round;stroke-linejoin:round;stroke-miterlimit:10"/><path d="m260.393 319.754 9.63-9.629 9.709 9.708h-19.273l-.079-.079zM279.736 319.837l-38.615 41.444v-41.444z" style="fill:#51c4ce;stroke:#231f20;stroke-width:1.3863;stroke-linecap:round;stroke-linejoin:round;stroke-miterlimit:10"/><path d="m260.393 319.754-19.272 41.527v-41.444z" style="fill:#fff;stroke:#231f20;stroke-width:1.3863;stroke-linecap:round;stroke-linejoin:round;stroke-miterlimit:10"/><path d="M220.472 328.824c-5.362-.995-12.766 1.938-18.799 7.97-6.033 6.033-8.965 13.437-7.97 18.799l-1.112 1.112 3.377 3.377c4.855 4.855 15.281 2.301 23.287-5.705s10.561-18.432 5.705-23.287l-3.377-3.377z" style="fill:#01928c;stroke:#231f20;stroke-width:1.3863;stroke-linecap:round;stroke-linejoin:round;stroke-miterlimit:10"/><ellipse cx="207.088" cy="342.208" rx="20.501" ry="12.432" style="fill:#bfdda4;stroke:#231f20;stroke-width:1.3863;stroke-linecap:round;stroke-linejoin:round;stroke-miterlimit:10" transform="rotate(-45.001 207.085 342.212)"/><path d="M216.021 333.28c.261.261.485.54.661.848 2.031 3.242.326 8.989-4.182 13.497-4.499 4.499-10.246 6.204-13.488 4.173a4.1 4.1 0 0 1-.848-.661c-2.99-2.99-1.425-9.417 3.503-14.345 4.936-4.937 11.364-6.502 14.354-3.512" style="fill:#bfdda4;stroke:#231f20;stroke-width:1.3863;stroke-linecap:round;stroke-linejoin:round;stroke-miterlimit:10"/><path d="M216.682 334.128c2.031 3.242.326 8.989-4.182 13.497-4.499 4.499-10.246 6.204-13.488 4.173-2.031-3.242-.326-8.989 4.173-13.488 4.508-4.508 10.256-6.213 13.497-4.182" style="fill:#01928c;stroke:#231f20;stroke-width:1.3863;stroke-linecap:round;stroke-linejoin:round;stroke-miterlimit:10"/><path d="M201.35 328.824c-5.362-.995-12.766 1.938-18.799 7.97-6.033 6.033-8.965 13.437-7.97 18.799l-1.112 1.112 3.377 3.377c4.855 4.855 15.281 2.301 23.287-5.705s10.561-18.432 5.705-23.287l-3.377-3.377z" style="fill:#01928c;stroke:#231f20;stroke-width:1.3863;stroke-linecap:round;stroke-linejoin:round;stroke-miterlimit:10"/><path d="M202.462 327.712c4.855 4.855 2.301 15.281-5.705 23.287s-18.432 10.561-23.287 5.705-2.301-15.281 5.705-23.287 18.432-10.56 23.287-5.705" style="fill:#bfdda4;stroke:#231f20;stroke-width:1.3863;stroke-linecap:round;stroke-linejoin:round;stroke-miterlimit:10"/><path d="M196.899 333.28c.261.261.485.54.662.848 2.031 3.242.326 8.989-4.182 13.497-4.499 4.499-10.247 6.204-13.488 4.173a4.1 4.1 0 0 1-.848-.661c-2.99-2.99-1.425-9.417 3.503-14.345 4.935-4.937 11.363-6.502 14.353-3.512" style="fill:#bfdda4;stroke:#231f20;stroke-width:1.3863;stroke-linecap:round;stroke-linejoin:round;stroke-miterlimit:10"/><path d="M197.56 334.128c2.031 3.242.326 8.989-4.182 13.497-4.499 4.499-10.247 6.204-13.488 4.173-2.031-3.242-.326-8.989 4.173-13.488 4.508-4.508 10.255-6.213 13.497-4.182" style="fill:#01928c;stroke:#231f20;stroke-width:1.3863;stroke-linecap:round;stroke-linejoin:round;stroke-miterlimit:10"/><path d="M182.228 328.824c-5.362-.995-12.766 1.938-18.799 7.97-6.033 6.033-8.965 13.437-7.97 18.799l-1.112 1.112 3.377 3.377c4.855 4.855 15.281 2.301 23.287-5.705s10.56-18.432 5.705-23.287l-3.377-3.377z" style="fill:#01928c;stroke:#231f20;stroke-width:1.3863;stroke-linecap:round;stroke-linejoin:round;stroke-miterlimit:10"/><ellipse cx="168.844" cy="342.208" rx="20.501" ry="12.432" style="fill:#bfdda4;stroke:#231f20;stroke-width:1.3863;stroke-linecap:round;stroke-linejoin:round;stroke-miterlimit:10" transform="rotate(-45.001 168.84 342.212)"/><path d="M177.777 333.28c.261.261.485.54.661.848 2.031 3.242.326 8.989-4.182 13.497-4.499 4.499-10.247 6.204-13.488 4.173a4.1 4.1 0 0 1-.848-.661c-2.99-2.99-1.425-9.417 3.503-14.345 4.936-4.937 11.364-6.502 14.354-3.512" style="fill:#bfdda4;stroke:#231f20;stroke-width:1.3863;stroke-linecap:round;stroke-linejoin:round;stroke-miterlimit:10"/><path d="M178.438 334.128c2.031 3.242.326 8.989-4.182 13.497-4.499 4.499-10.247 6.204-13.488 4.173-2.031-3.242-.326-8.989 4.173-13.488 4.508-4.508 10.255-6.213 13.497-4.182" style="fill:#01928c;stroke:#231f20;stroke-width:1.3863;stroke-linecap:round;stroke-linejoin:round;stroke-miterlimit:10"/><path d="M321.387 346.135c5.292 0 8.523 5.913 5.572 10.306-20.35 30.29-54.601 48.802-91.594 48.802h-2.042c-36.994 0-71.245-18.513-91.585-48.804-2.95-4.393.281-10.305 5.572-10.305h174.077z" style="fill:#f16560;stroke:#231f20;stroke-width:1.3863;stroke-linecap:round;stroke-linejoin:round;stroke-miterlimit:10"/><path d="m563.174-4.558-95.493 93.017s-17.007 4.202-35.397-6.771a53 53 0 0 1-3.398-2.187c-19.655-13.674-18.653-31.089-18.653-31.089l.013-.013 42.748-52.957h110.18" style="fill:#f16560"/><path d="m563.174-4.558-95.493 93.017s-17.007 4.202-35.397-6.771c19.167-14.728 78.21-61.045 96.521-86.246z" style="fill:#d14a4a"/><path d="M467.681 88.455s-19.154 4.729-38.795-8.958c-19.655-13.674-18.653-31.089-18.653-31.089l.013-.013c.725-.316 21.736-9.419 42.51 5.744 21.142 15.412 14.925 34.316 14.925 34.316" style="fill:#231f20;stroke:#231f20;stroke-width:1.3863;stroke-linecap:round;stroke-linejoin:round;stroke-miterlimit:10"/><path d="m563.174-4.558-95.493 93.017s-17.007 4.202-35.397-6.771a53 53 0 0 1-3.398-2.187c-19.655-13.674-18.653-31.089-18.653-31.089l.013-.013 42.748-52.957h110.18" style="fill:none;stroke:#231f20;stroke-width:1.6511;stroke-linecap:round;stroke-linejoin:round;stroke-miterlimit:10"/><path d="M448.933 57.08c-10.587-7.513-22.434-7.207-29.274-6.95-5.001 5.527-11.076 11.876-11.583 12.636-.842 1.264.632 14.321 15.374 25.904s28.221 8.003 29.063 7.371c.476-.357 6.331-6.096 12.215-11.373.811-7.819-2.738-18.321-15.795-27.588" style="fill:#fff"/><path d="M448.933 57.08c-10.587-7.513-22.434-7.207-29.274-6.95-5.001 5.527-11.076 11.876-11.583 12.636-.842 1.264.632 14.321 15.374 25.904s28.221 8.003 29.063 7.371c.476-.357 6.331-6.096 12.215-11.373.811-7.819-2.738-18.321-15.795-27.588" style="fill:none;stroke:#231f20;stroke-width:1.6511;stroke-linecap:round;stroke-linejoin:round;stroke-miterlimit:10"/><path d="M351.128 133.138c-1.616 1.818-7.879 11.919-8.889 16.566s22.425 22.021 22.425 22.021z" style="fill:#56154a"/><path d="M351.128 133.138c-1.616 1.818-7.879 11.919-8.889 16.566s22.425 22.021 22.425 22.021z" style="fill:none;stroke:#231f20;stroke-width:1.6511;stroke-linecap:round;stroke-linejoin:round;stroke-miterlimit:10"/><path d="M375.744 168.298c.711 7.838-3.609 11.303-6.956 10.973-1.146-.105-2.187-.659-2.858-1.633-.013-.026-.04-.053-.053-.092-.566-.83-1.673-2.556-3.069-4.834-5.599-9.129-16.032-26.992-16.032-30.035 0-3.833 8.629-22.987 10.302-25.372 1.502-2.147 10.13-8.918 11.895-10.301.198-.145.316-.237.316-.237l7.417-1.199-10.051 29.455c0-.001 8.141 22.736 9.089 33.275" style="fill:#56154a"/><path d="M369.434 173.251s-2.081 1.212-3.557 4.294c-.566-.83-1.673-2.556-3.069-4.834.514-1.159 1.633-2.885 3.886-3.754 0 0 1.818 2.832 2.74 4.294" style="fill:#94415d"/><path d="M375.744 168.298c.711 7.838-3.609 11.303-6.956 10.973-1.146-.105-2.187-.659-2.858-1.633-.013-.026-.04-.053-.053-.092-.566-.83-1.673-2.556-3.069-4.834-5.599-9.129-16.032-26.992-16.032-30.035 0-3.833 8.629-22.987 10.302-25.372 1.502-2.147 10.13-8.918 11.895-10.301.198-.145.316-.237.316-.237l7.417-1.199-10.051 29.455c0-.001 8.141 22.736 9.089 33.275" style="fill:none;stroke:#231f20;stroke-width:1.6511;stroke-linecap:round;stroke-linejoin:round;stroke-miterlimit:10"/><path d="M448.698 92.011c-4.44 15.663-23.594 51.416-26.874 54.683-2.042 2.042-8.181 6.995-13.529 10.723h-.013c-3.135 2.187-5.994 3.939-7.588 4.426a1 1 0 0 0-.132.04c-1.831.514-3.768-.277-5.019-1.923-1.62-2.121-2.121-5.678.119-9.762 3.965-7.245 11.685-15.189 11.685-15.189l2.095-17.297-10.75-.698-24.305 18.469s6.785 15.65 6.785 26.162c0 10.525-7.72 12.62-9.59 10.051-.132-.184-.329-.487-.606-.909a230 230 0 0 1-3.175-5.243c-5.586-9.459-15.097-26.452-14.872-29.14.303-3.596 9.603-26.096 12.593-29.1 2.595-2.582 35.753-33.039 44.618-41.167 1.383-1.291 2.174-2.015 2.174-2.015 15.254-8.719 40.823 12.239 36.384 27.889" style="fill:#94415d"/><path d="M448.698 92.011c-4.44 15.663-23.594 51.416-26.874 54.683-3.267 3.267-17.059 14.016-21.262 15.189-1.831.514-3.768-.277-5.019-1.923-.487-9.748 21.183-20.445 24.805-25.53 3.754-5.243 20.221-36.938 16.73-52.654-2.648-11.935-19.141-14.912-26.939-15.637 1.383-1.291 2.174-2.015 2.174-2.015 15.255-8.721 40.824 12.237 36.385 27.887" style="fill:#56154a"/><path d="M408.282 157.417c-3.135 2.187-5.994 3.939-7.588 4.426-2.068-1.963-3.175-4.518-3.175-4.518l6.982-4.808c1.212 2.199 2.767 3.912 3.781 4.9" style="fill:#94415d"/><path d="M374.453 165.584s-2.253 1.568-3.478 5.203a230 230 0 0 1-3.175-5.243c.435-1.199 1.423-3.017 3.597-4.031 0 .001 2.028 2.688 3.056 4.071" style="fill:#b75c7f"/><path d="m409.441 117.713-10.75-.698-24.305 18.469s.105-4.795 5.704-10.223c5.586-5.441 11.487-11.803 14.28-12.265 2.794-.461 15.704.738 15.071 4.717" style="fill:#56154a"/><path d="M448.698 92.011c-4.44 15.663-23.594 51.416-26.874 54.683-2.042 2.042-8.181 6.995-13.529 10.723h-.013c-3.135 2.187-5.994 3.939-7.588 4.426a1 1 0 0 0-.132.04c-1.831.514-3.768-.277-5.019-1.923-1.62-2.121-2.121-5.678.119-9.762 3.965-7.245 11.685-15.189 11.685-15.189l2.095-17.297-10.75-.698-24.305 18.469s6.785 15.65 6.785 26.162c0 10.525-7.72 12.62-9.59 10.051-.132-.184-.329-.487-.606-.909a230 230 0 0 1-3.175-5.243c-5.586-9.459-15.097-26.452-14.872-29.14.303-3.596 9.603-26.096 12.593-29.1 2.595-2.582 35.753-33.039 44.618-41.167 1.383-1.291 2.174-2.015 2.174-2.015 15.254-8.719 40.823 12.239 36.384 27.889" style="fill:none;stroke:#231f20;stroke-width:1.6511;stroke-linecap:round;stroke-linejoin:round;stroke-miterlimit:10"/></g></svg>