<svg xmlns="http://www.w3.org/2000/svg" xml:space="preserve" style="enable-background:new 0 0 1122 1122" viewBox="0 0 1122 1122"><path d="M0 0h1122v1122H0z" style="fill:#fff"/><path d="M181.925 149.179c-38.921 39.545-70.292 88.539-90.957 136.697-35.505 82.743-41.146 175.238-32.607 263.943 4.371 45.409 12.585 90.415 23.375 134.72 8.148 33.459 12.148 91.769 47.781 104.568 156.328 56.152 352.242 104.767 519.007 79.341 83.542-12.737 178.123 1.693 258.634-25.826 54.198-18.526 95.657-64.745 119.541-116.807 44.955-97.996 52.057-211.273 41.766-317.296-4.301-44.308-6.663-106.19-30.746-143.985-25.49-40.003-76.879-66.376-116.123-90.423C794.779 96.404 638.063 74.527 491.864 70.702c-76.711-2.007-174.069-14.577-242.838 25.485-24.144 14.066-46.663 32.226-67.101 52.992" style="fill:#e6eaeb"/><path d="M618.841 264.791c-2.399-2.595-5.692-2.902-7.45-3.07a318 318 0 0 0-24.047-1.339l-2.399-14.428c-.062-.351-.174-1.268-.317-1.137.199-.242.995-.749 1.485-1.05l11.545-7.286c1.361-.857 3.902-2.464 4.89-5.49.951-2.902-.012-5.561-.522-6.993a342 342 0 0 0-15.752-36.94c-.553-1.11-2.007-4.027-5.344-4.816a10 10 0 0 0-1.541-.167c-1.858 0-3.355.745-4.163 1.155l-23.637 11.962-7.842-7.606c-.317-.311-1.012-.923-1.019-.883.012-.373.478-1.417.658-1.815l8.109-18.215c.721-1.596 1.92-4.294 1.28-7.391-.783-3.731-3.797-5.881-5.419-7.037l-25.805-18.359c-1.212-.858-3.859-2.572-6.78-2.309-3.305.295-5.374 2.576-6.493 3.8l-17.896 19.738c-1.764-.559-3.455-1.18-5.207-1.83-2.001-.733-4.058-1.507-6.295-2.181l-9.762-31.013c-.677-2.147-2.796-3.526-4.996-3.309a219.6 219.6 0 0 0-42.893 8.389 4.79 4.79 0 0 0-3.244 3.368 134.4 134.4 0 0 0-4.046 25.408l-14.72 4.294a149 149 0 0 0-13.652-20.015 4.784 4.784 0 0 0-6.22-1.047 592 592 0 0 1-39.333 22.307 4.774 4.774 0 0 0-2.386 5.58 178.3 178.3 0 0 0 10.041 26.396c-6.487 5.863-9.234 7.687-10.346 8.233-3.647-.786-19.225-4.111-25.65-5.344a4.77 4.77 0 0 0-4.729 1.84l-26.042 35.092a4.778 4.778 0 0 0 1.435 6.972l28.533 16.582c.149.084.447.255.703.426-.05.236-.112.478-.15.624l-3.293 12.726-19.703 2.215c-1.386.158-3.952.454-5.94 2.507-1.784 1.858-2.119 4.132-2.3 5.351a423 423 0 0 0-4.02 41.653 4.767 4.767 0 0 0 4.206 4.962l23.184 2.753c5.412.634 8.482 1.886 9.122 3.732.261.767.286 2.041.304 3.277.031 1.706.069 3.803.752 5.844a219 219 0 0 1-22.308 23.015 4.78 4.78 0 0 0-.658 6.407 236.5 236.5 0 0 1 18.008 28.334 4.77 4.77 0 0 0 4.927 2.452l30.534-4.714c.559-.086 1.119-.186 1.97-.164.386.124 1.336 1.187 1.746 1.646.975 1.091 2.461 2.52 4.157 4.145 2.653 2.538 9.544 9.115 10.209 11.813-.845 1.507-3.274 5.014-5.101 7.667-7.91 11.433-10.569 15.277-6.183 18.657a118.6 118.6 0 0 0 28.347 16.143c2.05.832 4.728 1.451 7.102.705 2.081-.643 3.418-1.997 4.306-2.898L413.39 431.3a48 48 0 0 1 12.813 4.878c.099 8.447.77 16.92 1.982 25.262a4.78 4.78 0 0 0 4.686 4.089 401 401 0 0 1 46.068 3.008c.193.031.391.034.584.034a4.76 4.76 0 0 0 4.66-3.731 177 177 0 0 0 4.014-30.286 48.4 48.4 0 0 1 7.841-1.106l.913-.115c.262.199.79 1.031.963 1.299a119 119 0 0 1 8.762 16.463 4.74 4.74 0 0 0 3.026 2.676c1.354.4 2.821.174 3.995-.606 16.802-11.2 32.671-19.153 47.169-23.655a4.73 4.73 0 0 0 2.976-2.691 4.77 4.77 0 0 0-.13-4.011l-12.409-24.634a9 9 0 0 1-.248-.498c.13-.152.267-.317.354-.403l9.595-10.672a93.7 93.7 0 0 0 25.103 12.107 4.77 4.77 0 0 0 5.766-2.597 567 567 0 0 0 18.287-45.702 4.77 4.77 0 0 0-1.292-5.107 96 96 0 0 0-19.797-13.866 156 156 0 0 0 4.436-16.457 156 156 0 0 1 17.448-.463 4.76 4.76 0 0 0 4.822-3.828c2.467-12.247 5.014-24.907 5.443-37.773.063-1.73.181-5.353-2.379-8.124m-222.407 11.408c1.883-4.076 4.039-7.773 6.033-10.516 9.544-13.083 22.643-21.108 37.879-23.184 16.323-2.246 33.778 2.865 47.883 14.006 14.08 11.129 21.381 25.523 20.561 40.554-.87 15.938-10.905 31.05-27.533 41.455-19.013 11.909-40.401 12.406-60.223 1.392-23.873-13.257-31.236-31.665-23.861-59.708a4.76 4.76 0 0 0-.739-3.999" style="fill:#e0c349"/><path d="M839.748 424.796c-1.655-1.79-3.926-2.002-5.139-2.118a220 220 0 0 0-16.588-.923l-1.655-9.953c-.043-.242-.12-.874-.219-.784.138-.167.686-.517 1.025-.724l7.964-5.026c.939-.591 2.692-1.699 3.373-3.787.656-2.001-.008-3.836-.36-4.824a236 236 0 0 0-10.866-25.482c-.381-.766-1.384-2.778-3.686-3.322a7 7 0 0 0-1.063-.115c-1.282 0-2.314.514-2.872.797l-16.305 8.251-5.41-5.247c-.219-.215-.698-.637-.703-.609.008-.257.33-.978.454-1.252l5.594-12.565c.497-1.101 1.325-2.962.883-5.099-.54-2.574-2.619-4.057-3.738-4.854l-17.801-12.664c-.836-.592-2.662-1.775-4.677-1.592-2.28.204-3.708 1.777-4.479 2.621l-12.345 13.616c-1.217-.386-2.383-.814-3.592-1.262-1.38-.506-2.799-1.039-4.342-1.504l-6.734-21.394a3.3 3.3 0 0 0-3.446-2.282 151.4 151.4 0 0 0-29.589 5.787 3.3 3.3 0 0 0-2.238 2.323 92.7 92.7 0 0 0-2.791 17.527l-10.154 2.962a103 103 0 0 0-9.417-13.807 3.3 3.3 0 0 0-4.291-.722 408 408 0 0 1-27.133 15.388 3.29 3.29 0 0 0-1.646 3.849 123 123 0 0 0 6.927 18.208c-4.475 4.044-6.37 5.303-7.137 5.68-2.516-.542-13.262-2.836-17.694-3.687a3.29 3.29 0 0 0-3.262 1.269l-17.964 24.207a3.298 3.298 0 0 0 .991 4.81l19.683 11.438c.103.058.309.176.485.294-.035.163-.077.33-.103.431l-2.272 8.779-13.592 1.528c-.956.109-2.726.313-4.098 1.729-1.23 1.282-1.462 2.85-1.586 3.691a292 292 0 0 0-2.773 28.733 3.29 3.29 0 0 0 2.902 3.423l15.993 1.899c3.734.437 5.851 1.301 6.292 2.574.18.529.197 1.408.21 2.261.021 1.177.047 2.623.519 4.031a151 151 0 0 1-15.388 15.876 3.296 3.296 0 0 0-.454 4.419 163 163 0 0 1 12.422 19.546 3.29 3.29 0 0 0 3.399 1.691l21.063-3.252c.386-.06.772-.129 1.359-.113.266.086.922.818 1.204 1.135.673.752 1.697 1.738 2.867 2.859 1.83 1.751 6.584 6.288 7.043 8.149-.583 1.039-2.259 3.459-3.519 5.289-5.457 7.887-7.291 10.538-4.265 12.87a81.8 81.8 0 0 0 19.555 11.136c1.414.574 3.262 1.001 4.899.486 1.436-.444 2.357-1.378 2.971-1.999l15.585-15.738a33 33 0 0 1 8.839 3.365c.068 5.827.532 11.672 1.367 17.426a3.296 3.296 0 0 0 3.232 2.82c10.566.073 21.26.778 31.779 2.075.133.021.27.023.403.023a3.29 3.29 0 0 0 3.215-2.574 122 122 0 0 0 2.769-20.892 33.4 33.4 0 0 1 5.409-.763l.63-.08c.18.137.545.711.664.896a82 82 0 0 1 6.044 11.357 3.27 3.27 0 0 0 2.088 1.846 3.3 3.3 0 0 0 2.756-.418c11.59-7.726 22.538-13.212 32.538-16.318a3.27 3.27 0 0 0 2.053-1.856 3.29 3.29 0 0 0-.09-2.767l-8.56-16.993a6 6 0 0 1-.171-.343c.09-.105.184-.219.244-.278l6.619-7.362a64.6 64.6 0 0 0 17.317 8.352 3.29 3.29 0 0 0 3.977-1.792 391 391 0 0 0 12.615-31.526 3.29 3.29 0 0 0-.891-3.523 66.2 66.2 0 0 0-13.656-9.565 108 108 0 0 0 3.06-11.352c4.021-.332 8.046-.437 12.036-.32a3.28 3.28 0 0 0 3.326-2.641c1.702-8.448 3.459-17.182 3.755-26.057.042-1.191.123-3.69-1.643-5.602m-153.422 7.87c1.299-2.812 2.786-5.362 4.162-7.254 6.584-9.025 15.62-14.561 26.13-15.993 11.26-1.549 23.301 1.976 33.031 9.662 9.713 7.677 14.749 17.606 14.183 27.975-.6 10.995-7.523 21.419-18.993 28.597-13.116 8.215-27.87 8.558-41.543.96-16.468-9.145-21.548-21.843-16.46-41.188a3.28 3.28 0 0 0-.51-2.759" style="fill:#527595"/><path d="M789.862 207.199c-1.065-1.152-2.528-1.289-3.309-1.364a142 142 0 0 0-10.681-.595l-1.065-6.408c-.028-.156-.077-.563-.141-.505.089-.108.442-.333.66-.466l5.128-3.236c.604-.381 1.733-1.094 2.172-2.438.423-1.289-.005-2.47-.232-3.106a152 152 0 0 0-6.996-16.407c-.246-.493-.891-1.789-2.373-2.139a4.4 4.4 0 0 0-.684-.074c-.825 0-1.49.331-1.849.513l-10.498 5.313-3.483-3.378c-.141-.138-.45-.41-.452-.392.005-.166.213-.629.292-.806l3.602-8.09c.32-.709.853-1.907.569-3.283-.348-1.657-1.686-2.612-2.407-3.125l-11.462-8.154c-.538-.381-1.714-1.143-3.011-1.025-1.468.131-2.387 1.144-2.884 1.688l-7.948 8.767a49 49 0 0 1-2.313-.813c-.889-.326-1.802-.669-2.796-.969l-4.336-13.775a2.125 2.125 0 0 0-2.219-1.47 97.5 97.5 0 0 0-19.051 3.726 2.13 2.13 0 0 0-1.441 1.496 59.7 59.7 0 0 0-1.797 11.285l-6.538 1.907a66 66 0 0 0-6.063-8.89 2.126 2.126 0 0 0-2.763-.465 263 263 0 0 1-17.47 9.908 2.12 2.12 0 0 0-1.06 2.478 79 79 0 0 0 4.46 11.724c-2.881 2.604-4.101 3.414-4.595 3.657-1.62-.349-8.539-1.826-11.393-2.374a2.12 2.12 0 0 0-2.1.817l-11.567 15.586a2.12 2.12 0 0 0 .637 3.096l12.673 7.365c.066.037.199.113.312.189-.022.105-.05.213-.066.277l-1.463 5.652-8.751.984c-.615.07-1.755.202-2.638 1.114-.792.825-.941 1.835-1.021 2.376a188 188 0 0 0-1.785 18.501 2.117 2.117 0 0 0 1.868 2.204l10.297 1.223c2.404.282 3.767.838 4.052 1.658.116.341.127.907.135 1.456.014.758.031 1.689.334 2.596a97 97 0 0 1-9.908 10.222 2.12 2.12 0 0 0-.293 2.846 105 105 0 0 1 7.998 12.585 2.12 2.12 0 0 0 2.189 1.089l13.562-2.094c.248-.038.497-.083.875-.073.171.055.594.527.775.731.433.484 1.093 1.119 1.846 1.841 1.179 1.127 4.239 4.049 4.535 5.247-.375.669-1.454 2.227-2.266 3.406-3.513 5.078-4.694 6.785-2.746 8.287a52.7 52.7 0 0 0 12.591 7.17c.911.37 2.1.644 3.154.313.924-.286 1.518-.887 1.913-1.287l10.035-10.133a21.4 21.4 0 0 1 5.691 2.166c.044 3.752.342 7.515.88 11.22a2.12 2.12 0 0 0 2.081 1.816c6.803.047 13.689.501 20.462 1.336.086.014.174.015.26.015.982 0 1.852-.675 2.07-1.657a78.5 78.5 0 0 0 1.783-13.452 21.6 21.6 0 0 1 3.483-.491l.406-.051c.116.089.351.458.428.577a53 53 0 0 1 3.891 7.312 2.1 2.1 0 0 0 1.344 1.188 2.13 2.13 0 0 0 1.775-.269c7.463-4.975 14.511-8.507 20.95-10.507a2.1 2.1 0 0 0 1.322-1.195 2.12 2.12 0 0 0-.058-1.782l-5.511-10.941a4 4 0 0 1-.11-.221c.058-.068.119-.141.157-.179l4.262-4.74a41.6 41.6 0 0 0 11.15 5.378 2.12 2.12 0 0 0 2.561-1.154 252 252 0 0 0 8.122-20.299c.282-.8.055-1.695-.574-2.269a42.6 42.6 0 0 0-8.793-6.159 70 70 0 0 0 1.97-7.309 69 69 0 0 1 7.75-.206 2.11 2.11 0 0 0 2.142-1.7c1.096-5.44 2.227-11.063 2.418-16.777.022-.769.075-2.378-1.062-3.609m-98.784 5.067c.836-1.81 1.794-3.453 2.68-4.671 4.239-5.811 10.057-9.375 16.824-10.297 7.25-.998 15.003 1.272 21.268 6.221 6.254 4.943 9.497 11.336 9.132 18.012-.386 7.079-4.844 13.791-12.229 18.413-8.445 5.289-17.945 5.51-26.749.618-10.603-5.888-13.874-14.064-10.598-26.52a2.11 2.11 0 0 0-.328-1.776" style="fill:#a64749"/><path d="M516.088 459.96a21.4 21.4 0 0 0 1.582-6.673c.161-2.227-.396-4.989-2.557-5.718-2.133-.72-4.203 1.072-5.552 2.814-6.234 8.054-8.982 18.161-11.596 27.991-1.966-.945-1.132.607 8.078 1.832.581-4.188 4.551-6.935 7.052-10.344 2.665-3.633 6.452-6.937 6.79-11.434l-1.764-.402z" style="fill:#c8ae9a"/><path d="M602.446 903.51c-2.128-38.88 2.341-78.533 1.951-117.654 1.399-13.561-.87-27.373-6.635-40.121-.358-.791-.746-1.601-1.458-2.207-2.211-1.881-5.993-.881-8.927.118-28.136 9.585-61.367 7.328-87.02-6.204-5.067 6.379-6.521 14.204-7.772 21.765-2.021 12.223-4.235 24.421-4.778 36.697l-.006.07h.003c-.115 2.636-.18 5.275-.119 7.919.353 15.302 3.927 30.38 6.72 45.462 1.822 9.839 3.424 19.746 3.577 29.714.125 8.158-1.26 15.615.949 23.603 5.439 19.67 5.453 41.1 7.753 61.197 2.463 21.521 4.895 43.046 6.908 64.6l.239 2.575c1.313.29 21.373 4.106 21.373-.187l4.825-125.507c.677-17.604-.863-77.08 4.537-93.853l6.677.552c12.231 55.361 26.723 152.336 38.954 207.698 1.077 4.875 2.383 10.134 6.271 13.275s11.148 2.261 12.297-2.597c-3.591-42.303-4.003-84.591-6.319-126.915" style="fill:#1f375a"/><path d="M566.681 525.016c0-14.386-12.541-26.048-28.012-26.048s-28.012 11.662-28.012 26.048c0 2.402.378 4.718 1.033 6.926.024.565.036 1.144.027 1.749-.081 5.189.154 10.414 1.17 15.534 1.976 9.961 7.13 19.226 16.886 24.893 3.249 1.887 6.98 3.325 10.863 3.297 5.223-.038 10.014-2.723 13.643-6.055 11.986-11.009 13.02-27.555 12.174-43.17a24.5 24.5 0 0 0 .228-3.174" style="fill:#c8ae9a"/><path d="M536.671 1031.105a80.4 80.4 0 0 0-17.424.652 67.6 67.6 0 0 1-14.41 7.187c-1.487.534-3.053 1.051-4.151 2.089s-1.542 2.784-.516 3.878c.897.957 2.483 1.06 3.885 1.073 10.736.1 21.483-.71 32.046-2.418.633-.102 1.306-.226 1.764-.628.366-.322.537-.775.671-1.216 1.077-3.56.383-7.515-1.865-10.617M605.735 1033.943a71 71 0 0 0-15.247 3.274c-3.335 3.27-7.143 6.159-11.302 8.575-1.208.701-2.488 1.4-3.253 2.487-.765 1.086-.813 2.695.307 3.503.979.705 2.399.551 3.639.345a167 167 0 0 0 27.804-7.098c.539-.188 1.108-.402 1.433-.828.259-.34.322-.767.353-1.177.25-3.31-1.14-6.692-3.734-9.081" style="fill:#3d322b"/><path d="M506.039 480.897c1.424-3.705 2.583-8.679-.164-10.416-2.835-1.793-6.672 1.81-9.184 5.014l-16.561 21.117c-10.761 13.722-21.722 27.783-28.418 44.026-2.73 6.622-4.638 14.513-1.548 19.842 1.92 3.31 5.405 4.927 8.821 6.193 17.007 6.301 19.443-13.941 25.221-28.975q10.918-28.4 21.833-56.801M605.541 769.048l-.285-80.324c-.08-22.56-5.22-46.497-8.566-68.779-1.842-12.261-4.013-16.524-9.575-27.458-.792-1.558-.926-2.608-8.293-4.979-1.601-.515-5.402-2.676-7.363-2.344-9.619 1.625-19.411-2.019-29.03-.394-10.18 1.719-27.251-3.431-35.184 3.528-10.721 9.406-11.466 31.75-13.171 46.367-2.3 19.718-7.757 39.72-8.721 59.558-.846 17.411-1.305 34.84-1.626 52.269-.167 9.087-3.483 40.68 4.679 46.758 4.773 3.555 17.551 5.005 30.699 5.442q.71.025 1.419.045l.378.009c5.355.141 10.705.124 15.555.018 7.158-.156 13.215-.5 16.499-.8 15.337-1.399 30.485-4.524 45.51-7.978 2.669-.614 5.616-1.435 7.076-3.876 1.049-1.754.007-14.987-.001-17.062" style="fill:#1f375a"/><path d="M481.706 638.061c3.026 3.996 6.557 7.902 11.209 9.793 4.653 1.89 10.659 1.158 13.432-2.84 2.532-3.65 1.714-8.641.562-13.019-2.945-11.19 12.48-8.37 8.02-19.102-4.704-11.316-29.308-36.225-34.012-47.541-1.425-3.428-2.986-7.035-5.991-9.279-5.257-3.924-19.456-2.209-21.802 4.195-2.104 5.745 4.561 21.759 6.161 27.801 4.674 17.638 11.186 35.156 22.421 49.992" style="fill:#1f375a"/><path d="M553.872 609.029c.585-4.184 3.336-7.478 6.906-9.635l2.352-12.188c.094-.136.194-.27.271-.416a2.8 2.8 0 0 0 .319-1.532c-.95-.189-1.904-.361-2.855-.548-12.061 2.406-24.427 2.476-36.666-.693.14.979.19 1.981.095 3.002-6.526 70.309-9.196 140.887-6.568 211.423 1.745-.572 3.696-.883 5.87-.849 6.719.106 13.679.989 20.635 1.575-16.49-62.1.839-127.21 9.641-190.139m5.428-17.848q.445-.036.892-.073l-1.406 3.713z" style="fill:#e8e8e8"/><path d="M575.236 512.87c-2.306-9.7-9.245-17.231-18.086-21.628-13.828-6.878-37.172-7.363-44.214 9.068-13.815 4.824-6.712 26.629 7.068 21.639l.488-.179c7.101 3.49 17.089 4.638 25.876 4.785 3.278 8.01 9.946 14.891 19.648 10.958 9.318-3.778 11.31-15.852 9.22-24.643" style="fill:#8a6239"/><defs><filter id="a" width="222.307" height="14.891" x="494.856" y="1036.78" filterUnits="userSpaceOnUse"><feFlood result="back" style="flood-color:white;flood-opacity:1"/><feBlend in="SourceGraphic" in2="back"/></filter></defs><mask id="c" width="222.307" height="14.891" x="494.856" y="1036.78" maskUnits="userSpaceOnUse"><g style="filter:url(#a)"><defs><filter id="b" width="222.307" height="14.891" x="494.856" y="1036.78" filterUnits="userSpaceOnUse"><feFlood result="back" style="flood-color:white;flood-opacity:1"/><feBlend in="SourceGraphic" in2="back"/></filter></defs><linearGradient id="d" x1="1910.929" x2="2026.791" y1="1095.691" y2="1095.691" gradientTransform="matrix(1.919 -.0546 .0284 .9996 -3203.356 56.646)" gradientUnits="userSpaceOnUse"><stop offset="0" style="stop-color:#fff"/><stop offset="1" style="stop-color:#000"/></linearGradient><path d="M713.125 1043.923c4.299-1.491 5.544-3.306 1.873-5.514-2.952-1.775-11.508-.831-15.414-.922-18.285-.428-36.585-.76-54.93-.701a1578 1578 0 0 0-110.607 4.238c-5.452.401-44.939 1.96-38.479 8.711 3.284 3.432 18.98 1.255 24.775 1.232l38.002-.15 76.013-.3c5.634-.02 62.928-1.102 78.767-6.594" style="mask:url(#c);fill:url(#d)"/></g></mask><linearGradient id="e" x1="1910.929" x2="2026.791" y1="1095.691" y2="1095.691" gradientTransform="matrix(1.919 -.0546 .0284 .9996 -3203.356 56.646)" gradientUnits="userSpaceOnUse"><stop offset="0" style="stop-color:#000"/><stop offset="1" style="stop-color:#000"/></linearGradient><path d="M713.125 1043.923c4.299-1.491 5.544-3.306 1.873-5.514-2.952-1.775-11.508-.831-15.414-.922-18.285-.428-36.585-.76-54.93-.701a1578 1578 0 0 0-110.607 4.238c-5.452.401-44.939 1.96-38.479 8.711 3.284 3.432 18.98 1.255 24.775 1.232l38.002-.15 76.013-.3c5.634-.02 62.928-1.102 78.767-6.594" style="opacity:.22;fill:url(#e)"/><defs><filter id="f" width="222.307" height="14.891" x="329.973" y="1030.74" filterUnits="userSpaceOnUse"><feFlood result="back" style="flood-color:white;flood-opacity:1"/><feBlend in="SourceGraphic" in2="back"/></filter></defs><mask id="h" width="222.307" height="14.891" x="329.973" y="1030.74" maskUnits="userSpaceOnUse"><g style="filter:url(#f)"><defs><filter id="g" width="222.307" height="14.891" x="329.973" y="1030.74" filterUnits="userSpaceOnUse"><feFlood result="back" style="flood-color:white;flood-opacity:1"/><feBlend in="SourceGraphic" in2="back"/></filter></defs><linearGradient id="i" x1="1825.166" x2="1941.028" y1="1084.965" y2="1084.965" gradientTransform="matrix(1.919 -.0546 .0284 .9996 -3203.356 56.646)" gradientUnits="userSpaceOnUse"><stop offset="0" style="stop-color:#fff"/><stop offset="1" style="stop-color:#000"/></linearGradient><path d="M548.242 1037.884c4.299-1.491 5.544-3.306 1.873-5.514-2.952-1.775-11.508-.831-15.414-.922-18.285-.428-36.585-.76-54.931-.701a1578 1578 0 0 0-110.607 4.238c-5.452.401-44.939 1.96-38.479 8.711 3.284 3.433 18.98 1.255 24.775 1.233l38.002-.15 76.013-.3c5.635-.022 62.929-1.103 78.768-6.595" style="mask:url(#h);fill:url(#i)"/></g></mask><linearGradient id="j" x1="1825.166" x2="1941.028" y1="1084.965" y2="1084.965" gradientTransform="matrix(1.919 -.0546 .0284 .9996 -3203.356 56.646)" gradientUnits="userSpaceOnUse"><stop offset="0" style="stop-color:#000"/><stop offset="1" style="stop-color:#000"/></linearGradient><path d="M548.242 1037.884c4.299-1.491 5.544-3.306 1.873-5.514-2.952-1.775-11.508-.831-15.414-.922-18.285-.428-36.585-.76-54.931-.701a1578 1578 0 0 0-110.607 4.238c-5.452.401-44.939 1.96-38.479 8.711 3.284 3.433 18.98 1.255 24.775 1.233l38.002-.15 76.013-.3c5.635-.022 62.929-1.103 78.768-6.595" style="opacity:.22;fill:url(#j)"/><path d="M365.523 893.142c1.803-39.869-1.984-80.53-1.654-120.645-1.186-13.905.737-28.068 5.623-41.141.303-.811.632-1.642 1.236-2.263 1.874-1.929 5.079-.903 7.566.122 23.845 9.829 52.009 7.514 73.749-6.362 4.294 6.541 5.527 14.565 6.586 22.318 1.713 12.533 3.589 25.042 4.049 37.63l.005.072h-.002c.098 2.703.152 5.409.101 8.121-.299 15.691-3.328 31.152-5.695 46.618-1.544 10.089-2.902 20.248-3.031 30.469-.106 8.366 1.068 16.012-.804 24.203-4.609 20.17-4.621 42.144-6.57 62.752-2.087 22.068-4.148 44.141-5.854 66.242l-.202 2.64c-1.113.297-18.114 4.21-18.114-.191l-4.089-128.698c-.574-18.052-1.184-36.368-5.761-53.567l-5.658.566-31.098 170.306c-.913 4.999-2.02 10.392-5.315 13.612s-9.448 2.319-10.421-2.663c3.041-43.379 3.39-86.741 5.353-130.141" style="fill:#333"/><path d="M422.887 1026.543a63.8 63.8 0 0 1 15.566.656 58 58 0 0 0 12.874 7.236c1.329.537 2.728 1.058 3.709 2.103s1.378 2.803.461 3.905c-.801.963-2.218 1.067-3.471 1.08a151 151 0 0 1-28.63-2.434c-.566-.103-1.167-.228-1.576-.632-.327-.324-.48-.78-.599-1.224-.962-3.585-.342-7.567 1.666-10.69M370.258 1026.381a64.2 64.2 0 0 0-15.599 1.6 58.3 58.3 0 0 1-12.496 8.048c-1.303.62-2.677 1.228-3.599 2.337s-1.215 2.899-.227 3.951c.863.919 2.293.938 3.552.875a152 152 0 0 0 28.616-4.176c.562-.138 1.159-.299 1.545-.731.309-.345.435-.813.528-1.266.75-3.66-.113-7.622-2.32-10.638" style="fill:#736357"/><path d="M408.552 559.809c5.148-.042 9.871-3.024 13.448-6.727 13.321-13.788 12.923-35.397 11.613-54.524-.139-2.029-.315-4.166-1.465-5.843-1.771-2.583-5.233-3.266-8.344-3.622-13.295 0-26.414.603-39.811 1.25-1.125.054-2.331.137-3.217.833-.946.742-1.297 2.003-1.5 3.188-.941 5.498.849 11.252.771 16.876-.08 5.764.152 11.569 1.153 17.255 1.948 11.065 7.029 21.357 16.644 27.652 3.203 2.097 6.88 3.693 10.708 3.662" style="fill:#f0e5d4"/><path d="M432.791 480.089c8.527 6.559 8.871 19.106 8.022 29.83-.37 4.679-1.328 10.138-5.52 12.25.197-4.785-2.931-8.992-5.904-12.747-2.037-2.573-4.166-5.223-7.087-6.719-8.818-4.515-18.417 2.676-27.291 3.276-5.906.399-7.993-2.282-10.096 4.382-1.704 5.399-2.274 11.404-2.311 17.039-.005.716-.01 1.476-.388 2.084s-1.282.947-1.83.486c-.231-.194-.353-.485-.467-.764-3.076-7.524-8.874-15.626-10.001-23.596-1.391-9.833-.046-20.247 3.395-29.53.673-1.815 1.884-3.91 3.818-3.839 1.382.051 2.411 1.22 3.499 2.074 2.524 1.981 5.943 2.456 9.141 2.196s6.305-1.174 9.474-1.677c6.124-.972 11.786.45 17.823.735 5.522.26 11.208 1.046 15.723 4.52M423.99 564.368c8.454-8.977 16.428 1.053 19.561 9.786 12.647 35.25 16.87 73.002 20.998 110.332l1.984 17.941 7.145 64.609c.14 1.268-24.498 6.518-26.592 7.041-12.868 3.217-26.28 3.329-39.428 2.458-16.461-1.09-32.845-3.7-49.339-3.642-7.036.025-14.188.523-21.007-1.26 2.7-12.511 2.902-25.425 3.426-38.229 1.264-30.883 4.465-61.644 7.665-92.38 1.795-17.243 2.807-34.877 5.132-51.972 1.271-9.343 5.509-25.691 14.876-29.775 9.941-4.333 14.81 7.189 22.878 10.208 9.232 3.452 20.541 4.048 28.964-1.764 1.563-1.076 2.707-2.258 3.737-3.353" style="fill:#333"/><path d="M467.545 757.4c.365-.07.493-.263.284-.628-1.368-2.392-3.484-6.792-5.661-11.944-1.64-25.595-4.22-51.249-8.691-76.446-5.514-31.078-17.402-59.915-24.495-90.478-2.086-8.991-12.823-8.186-16.821-1.902-.308.07-.619.131-.929.193-3.417-3.004-7.575-5.508-12.681-7.346-5.694-2.049-11.618 3.26-11.616 8.849a739 739 0 0 1-.234 17.913c-9.933 48.661-15.896 98.077-17.766 147.719-.002.056.005.112.005.168a768 768 0 0 1-1.691 7.64c-1.247 3.845-2.58 8.225-2.735 11.62-.081.333-.156.668-.237 1.001-1.065 4.349 1.389 8.116 5.451 9.6 31.085 11.362 64.315 9.527 94.107-4.68a8.5 8.5 0 0 0 1.121-.649l.781-.33 1.386-1.071c1.071-1.071 1.684-2.448 1.883-3.931.242-1.802-.287-3.823-1.461-5.298" style="fill:#f0f0f0"/><path d="M505.813 477.205a21.5 21.5 0 0 1 3.087-6.124c1.311-1.808 3.515-3.562 5.638-2.729 2.096.823 2.526 3.527 2.435 5.728-.416 10.176-4.822 19.678-9.152 28.882a34.7 34.7 0 0 1-9.972-4.326 25.7 25.7 0 0 0 3.877-11.929c.3-4.496-.47-9.462 2.168-13.12l1.608.828z" style="fill:#e8dbce"/><path d="M498.109 496.472c-1.343-.37-20.46 59.464-27.151 64.71-2.471 1.937-5.49 3.025-8.492 3.943a103.4 103.4 0 0 1-41.647 3.871c-12.874-1.444-42.327-13.009-53.133-3.308-6.114 5.489-5.015 17.567-4.272 24.752.641 6.211-3.801 56.709 9.159 47.979 10.592-7.137 25.16-12.28 40.223-16.364-.022.069-.053.128-.071.202-3.642 15.066-8.654 30.441-9.956 45.941a77 77 0 0 0-.146 2.198c-.149.368-.296.739-.447 1.104-1.201 2.902-2.322 5.625-2.37 8.843-.149 10.052 6.331 20.529 9.571 29.822.281.807.784 1.296 1.359 1.53 1.132 1.57 3.688.667 4.285-.989a335 335 0 0 0 2.133-6.074c.645-.425 1.104-1.139 1.105-2.163l.002-1.194c2.53-7.923 4.426-15.914 4.595-24.212a2.62 2.62 0 0 0 .863-1.945c.244-15.806-.267-31.567-1.446-47.32.251-2.4.518-4.799.791-7.197a2.2 2.2 0 0 0-.158-1.13c13.324-3.225 26.433-5.788 36.942-8.323 9.439-2.277 18.897-6.122 25.398-13.333 10.254-11.372 10.852-27.963 14.093-42.191 4.203-18.451 8.13-36.969 12.194-55.451z" style="fill:#333"/><path d="M644.562 1045.886c-1.796 1.507.646 2.703 1.818 2.815 2.133.204 4.349.084 6.436-.418.553-.133 1.116-.301 1.561-.656.35-.279.604-.657.853-1.029.688-1.027 2.318-2.652 2.576-3.843.213-.983-.378-1.938-.839-2.835-.979-1.904-2.655-3.861-2.571-6.125-4.626.509-9.064-1.087-12.898.161-.322 1.612-1.529 2.93-.967 4.192-.371-.833-11.544 1.979-12.869 2.239-2.131.417-4.274.771-6.438.963-1.685.149-4.914-.628-5.862 1.053-.337.597-.447 1.294-.497 1.978-.038.52-.043 1.056.126 1.549.292.851 1.072 1.462 1.916 1.773 9.181 3.377 18.332-1.951 27.655-1.817" style="fill:#1a1a1a"/><path d="m648.85 833.223-31.584-.835c-.657-1.361 2.07-.188 2.048 1.324a692.7 692.7 0 0 0 12.688 142.187c3.926 20.164 8.771 40.341 8.851 60.884l12.96-.022 4.402-192.78c.074-3.25-.058-6.978-2.567-9.046-1.838-1.517-4.416-1.649-6.798-1.712M737.909 1027.399c5.846-.066 11.65-2.156 16.195-5.833l-30.819-54.354c-3.249-5.73-6.514-11.495-8.733-17.696-2.728-7.624-4.471-15.661-4.876-23.748-4.436-88.772-4.436-88.772 2.202-107.887.864-2.487 17.002-11.625 0 0-6.243 4.269-29.902.76-37.385 1.864-1.64.242-3.424.559-4.52 1.803-1.252 1.422.615 6.389-1.018 5.429-13.346-7.848-4.435 2.827-2.438 27.51.702 8.679 9.848 63.982 12.458 72.289 4.613 14.683 10.844 29.862 20.216 42.07 14.429 18.798 24.076 36.114 38.718 58.553" style="fill:#444748"/><path d="M516.329 469.387a21.4 21.4 0 0 0-2.461-6.401c-1.125-1.929-3.143-3.895-5.339-3.277-2.167.61-2.864 3.258-2.994 5.457-.599 10.167 2.839 20.061 6.231 29.65a34.6 34.6 0 0 0 10.354-3.312 25.7 25.7 0 0 1-2.671-12.255c.149-4.504 1.409-9.368-.851-13.271l-1.683.664z" style="fill:#e8dbce"/><path d="M620.83 633.088c17.496 4.337 28.946-45.173 6.973-50.056-19.9-4.423-50.451 1.153-69.457-8.198-9.122-4.488-15.821-12.297-18.972-22.739a1344 1344 0 0 1-17.296-62.769l-13.727 2.345 9.437 80.463c.606 5.167 1.271 10.526 3.748 15.176 2.402 4.509 6.261 7.869 10.133 10.84 25.707 19.724 61.404 28.057 89.161 34.938" style="fill:#444748"/><path d="M652.731 566.062c2.317-4.03 3.64-9.206 3.565-15.258-.138-11.17-1.525-22.613-6.602-32.354-5.847-11.218-19.402-21.641-32.385-17.399-15.208 4.968-12.678 25.805-10.61 39.616 1.644 10.975 6.234 21.838 14.567 28.587 12.445 10.08 25.38 7.394 31.465-3.192" style="fill:#e8dbce"/><path d="M748.18 1035.968c-1.115 2.272 1.817 2.386 3.024 1.985 2.195-.73 4.33-1.815 6.17-3.222.488-.373.971-.784 1.254-1.329.223-.428.31-.912.393-1.388.231-1.314 1.131-3.63.865-4.919-.219-1.063-1.219-1.748-2.066-2.432-1.798-1.453-4.951-4.104-5.857-6.375-4.345 2.522-10.948 5.478-14.187 8.383 1.773 1.29 1.941 2.417 3.046 3.417-.729-.66-10.532 6.993-11.726 7.828-1.922 1.342-3.882 2.627-5.935 3.761-1.599.883-5.125 1.525-5.327 3.599-.072.736.124 1.473.372 2.17.189.53.418 1.061.8 1.475.659.713 1.696.976 2.666.914 10.538-.676 17.245-9.929 26.508-13.867" style="fill:#1a1a1a"/><path d="M715.172 705.246c-1.905-33.712-6.61-68.545-21.508-97.277-10.7-20.637-25.42-44.627-46.07-23.047-1.869 1.953-14.686-5.391-15.947-2.924-3.14-1.079-6.658.04-8.749 4.712-6.999 15.635-9.513 32.893-10.634 50.637-1.286 20.351-1.674 40.847-2.157 61.25-.224 9.459-.395 18.919-.528 28.38-2.873 25.297-4.298 50.734-1.036 76.17.164 1.28.5 2.38.957 3.321.076 6.385.164 12.769.278 19.153.073 4.084 2.475 9.457 6.033 10.076 31.455 5.469 62.892 4.017 93.897-4.824 3.637-1.037 5.86-5.625 6.033-10.076 1.497-38.449 1.601-77.137-.569-115.551" style="fill:#f0f0f0"/><path d="M671.567 491.514c-.526-4.048-4.857-5.937-9.313-6.245-1.132-2.685-3.06-4.275-5.35-4.828-1.22-2.508-3.553-4.829-6.695-6.132-7.827-3.245-17.309-2.35-22.374 3.075a8.7 8.7 0 0 0-3.927.536c-2.153-.252-4.396-.158-6.33.483-3.667-2.165-7.936-2.962-11.833-.581-3.807 2.326-5.137 7.62-5.649 13.13-.101.023-.194.021-.296.047-2.306.583-4.697 2.401-6.762 4.827-13.457 3.311-20.055 19.912-7.418 29.732 6.224 4.837 14.536 4.713 20.925.298 3.267-2.258 4.852-4.982 6.668-8.398 1.379-2.593 1.991-6.489 5.077-8.057 2.088-1.061 6.65-.531 10.337-.078.152.656.351 1.365.595 2.229.926 3.283 1.597 6.512 2.323 9.892 1.186 5.53 4.128 10.245 10.637 10.23 1.732-.004 4.417-1.989 5.698-1.763 4.046.712 1.351 7.468 1.553 10.76.457 7.428 4.788 12.953 10.902 16.687 2.081 1.271 4.943.452 6.161-1.615 4.303-7.302 14.84-27.02 13.471-39.761.123-.164.241-.333.333-.52 5.229-10.562 1.05-20.405-8.733-23.948" style="fill:#d7c68e"/><path d="M710.141 647.544c-7.958-26.45-19.958-51.466-31.884-76.301-1.764-3.674-7.863-2.731-8.721 1.14-.253 1.14-.492 2.283-.738 3.424-1.441-.254-2.984.236-3.943 1.887-20.884 35.932-18.561 81.313-20.829 121.445l-5.629 99.584a1139 1139 0 0 0-4.093 25.149c-.176 1.173-.013 2.228.373 3.14-2.305 6.475-2.775 13.167-1.642 20.365.364 2.313 3.178 4.248 5.435 4.138a49 49 0 0 0 10.961-1.792c15.002 1.848 30.781 2.193 44.377-4.736 17.794-9.069 24.92-14.407 26.06-32.872 1.583-25.639-.07-65.438-.001-91.123.066-24.972-2.513-49.475-9.726-73.448M628.236 578.622c-.32-.615-1.085-.847-1.723-.701-3.794.867-4.124 2.231-5.587 5.719-2.22 5.292-4.379 10.584-6.198 16.03-3.475 10.401-6.063 21.086-8.007 31.874-3.919 21.743-5.354 43.879-5.736 65.944-.401 23.179-.829 46.496-.007 69.667.444 12.503.948 25.003 1.72 37.478.386 6.232 1.028 12.435 1.427 18.668.341 5.326.476 9.681 2.769 14.589 1.515 3.243 7.292 2.555 7.899-1.032.89-5.252-.115-9.668-.933-14.874-.986-6.276-1.301-12.603-1.939-18.909-1.154-11.4-1.529-22.892-1.643-34.356-.227-22.775-.958-45.543-.694-68.323.253-21.801 1.139-43.743 4.698-65.285 1.71-10.352 3.997-20.617 7.076-30.651 1.858-6.053 3.926-12.107 6.433-17.925 1.465-3.407 2.195-4.554.445-7.913" style="fill:#444748"/><path d="M633.096 591.322c-1.451 2.818-3.275 5.273-4.323 8.314-1 2.901-1.426 6.295-1.152 9.342a4.4 4.4 0 0 0 1.217 2.649c-.551.618-.94 1.469-1.053 2.571-.112 1.092-.236 2.182-.353 3.274-.229.532-.351 1.153-.322 1.871.012.284.017.569.028.853-2.374 21.652-5.523 43.244-7.732 64.928l-7.167 70.349c-.39 3.824 4.779 5.324 7.21 2.987 6.71-6.452 7.471-16.067 8.957-24.798a567 567 0 0 0 5.044-37.087c2.639-25.658 3.346-51.464 2.304-77.233a4.45 4.45 0 0 0-.466-1.853c.148-.738.269-1.484.424-2.219.361-1.707-.166-3.008-1.083-3.847 3.275-3.485 4.671-7.84 3.514-12.526a3.4 3.4 0 0 0-.359-.878c.468-.668.992-1.293 1.65-1.807 4.5-3.51-3.503-10.398-6.338-4.89" style="fill:#1f375a"/><path d="M686.612 660.493c-3.451-15.393-23.257-18.645-27.126.753-3.504 17.568-4.672 35.503-12.604 52.445-3.807 8.131-10.64 14.247-19.907 17.338a1232 1232 0 0 1-55.746 17.143l2.409 11.947 71.749-10.823c4.608-.695 9.385-1.447 13.488-3.765 3.978-2.247 6.896-5.733 9.465-9.219 17.058-23.14 23.805-51.137 18.272-75.819" style="fill:#444748"/><path d="M552.925 758.268c-1.684.599-3.401 1.216-4.8 2.328s-2.447 2.828-2.286 4.608c.16 1.78 1.845 3.425 3.606 3.126a1.74 1.74 0 0 0 .283 1.463c3.641 1.026 7.282-1.253 10.614-3.045a47 47 0 0 1 8.064-3.414c2.354-.747 5.011-1.489 6.252-3.625.905-1.556.805-3.524.243-5.234-.561-1.711-1.536-3.249-2.35-4.854l-13.135 2.437c-.713.132-1.457.278-2.026.727s-.891 1.302-.513 1.921c.95.099 1.858.561 2.498 1.27q-3.226 1.145-6.45 2.292" style="fill:#e8dbce"/><defs><filter id="k" width="222.307" height="14.891" x="609.402" y="1036.78" filterUnits="userSpaceOnUse"><feFlood result="back" style="flood-color:white;flood-opacity:1"/><feBlend in="SourceGraphic" in2="back"/></filter></defs><mask id="m" width="222.307" height="14.891" x="609.402" y="1036.78" maskUnits="userSpaceOnUse"><g style="filter:url(#k)"><defs><filter id="l" width="222.307" height="14.891" x="609.402" y="1036.78" filterUnits="userSpaceOnUse"><feFlood result="back" style="flood-color:white;flood-opacity:1"/><feBlend in="SourceGraphic" in2="back"/></filter></defs><linearGradient id="n" x1="1970.571" x2="2086.433" y1="1098.949" y2="1098.949" gradientTransform="matrix(1.919 -.0546 .0284 .9996 -3203.356 56.646)" gradientUnits="userSpaceOnUse"><stop offset="0" style="stop-color:#fff"/><stop offset="1" style="stop-color:#000"/></linearGradient><path d="M827.672 1043.923c4.299-1.491 5.544-3.306 1.873-5.514-2.952-1.775-11.508-.831-15.414-.922-18.285-.428-36.585-.76-54.93-.701a1578 1578 0 0 0-110.607 4.238c-5.452.401-44.939 1.96-38.479 8.711 3.284 3.432 18.98 1.255 24.775 1.232l38.002-.15 76.013-.3c5.633-.02 62.927-1.102 78.767-6.594" style="mask:url(#m);fill:url(#n)"/></g></mask><linearGradient id="o" x1="1970.571" x2="2086.433" y1="1098.949" y2="1098.949" gradientTransform="matrix(1.919 -.0546 .0284 .9996 -3203.356 56.646)" gradientUnits="userSpaceOnUse"><stop offset="0" style="stop-color:#000"/><stop offset="1" style="stop-color:#000"/></linearGradient><path d="M827.672 1043.923c4.299-1.491 5.544-3.306 1.873-5.514-2.952-1.775-11.508-.831-15.414-.922-18.285-.428-36.585-.76-54.93-.701a1578 1578 0 0 0-110.607 4.238c-5.452.401-44.939 1.96-38.479 8.711 3.284 3.432 18.98 1.255 24.775 1.232l38.002-.15 76.013-.3c5.633-.02 62.927-1.102 78.767-6.594" style="opacity:.22;fill:url(#o)"/></svg>